<?xml version="1.0" encoding="UTF-8"?>
<svg xmlns="http://www.w3.org/2000/svg" xmlns:xlink="http://www.w3.org/1999/xlink" viewBox="0 0 307.652 139.578">
<defs>
<g>
<g id="glyph-0-0">
<path d="M 0.96875 -2.734375 C 1.234375 -2.671875 1.453125 -2.671875 1.515625 -2.671875 C 1.859375 -2.671875 2.109375 -2.765625 2.234375 -2.84375 C 2.34375 -2.90625 2.6875 -3.109375 2.6875 -3.21875 C 2.6875 -3.296875 2.640625 -3.3125 2.625 -3.3125 C 2.609375 -3.3125 2.59375 -3.3125 2.546875 -3.28125 C 2.359375 -3.21875 2.046875 -3.15625 1.71875 -3.15625 C 1.4375 -3.15625 1.15625 -3.203125 0.90625 -3.296875 C 0.84375 -3.3125 0.828125 -3.3125 0.828125 -3.3125 C 0.75 -3.3125 0.75 -3.25 0.75 -3.171875 L 0.75 -1.671875 C 0.75 -1.59375 0.75 -1.53125 0.84375 -1.53125 C 0.90625 -1.53125 0.90625 -1.546875 0.953125 -1.59375 C 1.140625 -1.8125 1.40625 -1.921875 1.75 -1.921875 C 2.03125 -1.921875 2.1875 -1.75 2.265625 -1.65625 C 2.375 -1.484375 2.40625 -1.25 2.40625 -1.015625 C 2.40625 -0.8125 2.375 -0.53125 2.1875 -0.34375 C 1.96875 -0.109375 1.671875 -0.09375 1.5625 -0.09375 C 1.25 -0.09375 0.890625 -0.234375 0.734375 -0.53125 C 0.9375 -0.546875 1.015625 -0.6875 1.015625 -0.8125 C 1.015625 -0.96875 0.890625 -1.078125 0.734375 -1.078125 C 0.625 -1.078125 0.453125 -1.015625 0.453125 -0.796875 C 0.453125 -0.296875 0.921875 0.109375 1.578125 0.109375 C 2.328125 0.109375 2.921875 -0.390625 2.921875 -1 C 2.921875 -1.5625 2.4375 -2.09375 1.75 -2.09375 C 1.4375 -2.09375 1.1875 -2 0.96875 -1.84375 Z M 0.96875 -2.734375 "/>
</g>
<g id="glyph-0-1">
<path d="M 1.984375 -3.15625 C 1.984375 -3.3125 1.96875 -3.3125 1.796875 -3.3125 C 1.453125 -2.984375 0.890625 -2.984375 0.796875 -2.984375 L 0.703125 -2.984375 L 0.703125 -2.765625 L 0.796875 -2.765625 C 0.90625 -2.765625 1.234375 -2.78125 1.515625 -2.90625 L 1.515625 -0.421875 C 1.515625 -0.265625 1.515625 -0.21875 1 -0.21875 L 0.75 -0.21875 L 0.75 0 C 1.015625 -0.015625 1.453125 -0.015625 1.75 -0.015625 C 2.03125 -0.015625 2.484375 -0.015625 2.75 0 L 2.75 -0.21875 L 2.5 -0.21875 C 1.984375 -0.21875 1.984375 -0.265625 1.984375 -0.421875 Z M 1.984375 -3.15625 "/>
</g>
<g id="glyph-0-2">
<path d="M 2.984375 -1.59375 C 2.984375 -1.953125 2.984375 -3.3125 1.6875 -3.3125 C 0.390625 -3.3125 0.390625 -1.953125 0.390625 -1.59375 C 0.390625 -1.234375 0.390625 0.109375 1.6875 0.109375 C 2.984375 0.109375 2.984375 -1.234375 2.984375 -1.59375 Z M 1.6875 -0.046875 C 1.5 -0.046875 1.09375 -0.125 0.96875 -0.625 C 0.890625 -0.890625 0.890625 -1.234375 0.890625 -1.65625 C 0.890625 -2.015625 0.890625 -2.359375 0.96875 -2.640625 C 1.09375 -3.0625 1.46875 -3.140625 1.6875 -3.140625 C 2.0625 -3.140625 2.328125 -2.953125 2.421875 -2.609375 C 2.484375 -2.359375 2.484375 -1.9375 2.484375 -1.65625 C 2.484375 -1.3125 2.484375 -0.90625 2.421875 -0.609375 C 2.28125 -0.125 1.890625 -0.046875 1.6875 -0.046875 Z M 1.6875 -0.046875 "/>
</g>
<g id="glyph-0-3">
<path d="M 2.921875 -0.953125 L 2.71875 -0.953125 C 2.703125 -0.859375 2.65625 -0.5625 2.578125 -0.5 C 2.53125 -0.484375 2.109375 -0.484375 2.046875 -0.484375 L 1.0625 -0.484375 C 1.390625 -0.71875 1.765625 -1 2.0625 -1.203125 C 2.515625 -1.5 2.921875 -1.796875 2.921875 -2.328125 C 2.921875 -2.953125 2.328125 -3.3125 1.609375 -3.3125 C 0.9375 -3.3125 0.453125 -2.921875 0.453125 -2.4375 C 0.453125 -2.171875 0.671875 -2.125 0.734375 -2.125 C 0.875 -2.125 1.03125 -2.21875 1.03125 -2.421875 C 1.03125 -2.609375 0.90625 -2.703125 0.75 -2.71875 C 0.890625 -2.9375 1.171875 -3.09375 1.515625 -3.09375 C 2 -3.09375 2.390625 -2.796875 2.390625 -2.3125 C 2.390625 -1.890625 2.109375 -1.578125 1.71875 -1.25 L 0.515625 -0.234375 C 0.46875 -0.1875 0.453125 -0.1875 0.453125 -0.15625 L 0.453125 0 L 2.765625 0 Z M 2.921875 -0.953125 "/>
</g>
<g id="glyph-0-4">
<path d="M 3.0625 -0.8125 L 3.0625 -1.03125 L 2.4375 -1.03125 L 2.4375 -3.21875 C 2.4375 -3.328125 2.4375 -3.359375 2.3125 -3.359375 C 2.21875 -3.359375 2.203125 -3.359375 2.15625 -3.296875 L 0.3125 -1.03125 L 0.3125 -0.8125 L 1.96875 -0.8125 L 1.96875 -0.421875 C 1.96875 -0.265625 1.96875 -0.21875 1.53125 -0.21875 L 1.359375 -0.21875 L 1.359375 0 C 1.59375 -0.015625 1.921875 -0.015625 2.203125 -0.015625 C 2.5 -0.015625 2.8125 -0.015625 3.046875 0 L 3.046875 -0.21875 L 2.875 -0.21875 C 2.4375 -0.21875 2.4375 -0.265625 2.4375 -0.421875 L 2.4375 -0.8125 Z M 2 -2.828125 L 2 -1.03125 L 0.546875 -1.03125 Z M 2 -2.828125 "/>
</g>
<g id="glyph-0-5">
<path d="M 0.921875 -1.625 C 0.921875 -1.859375 0.9375 -2.25 1.109375 -2.578125 C 1.25 -2.84375 1.578125 -3.125 2.046875 -3.125 C 2.140625 -3.125 2.359375 -3.109375 2.515625 -2.984375 C 2.421875 -2.96875 2.296875 -2.890625 2.296875 -2.734375 C 2.296875 -2.5625 2.421875 -2.46875 2.5625 -2.46875 C 2.640625 -2.46875 2.828125 -2.515625 2.828125 -2.75 C 2.828125 -3.015625 2.640625 -3.3125 2.03125 -3.3125 C 1.1875 -3.3125 0.390625 -2.609375 0.390625 -1.578125 C 0.390625 -0.390625 0.984375 0.109375 1.703125 0.109375 C 2.203125 0.109375 2.421875 -0.078125 2.59375 -0.21875 C 2.921875 -0.484375 2.984375 -0.765625 2.984375 -1.015625 C 2.984375 -1.328125 2.875 -1.5625 2.625 -1.796875 C 2.40625 -2 2.171875 -2.125 1.75 -2.125 C 1.453125 -2.125 1.140625 -1.984375 0.921875 -1.625 Z M 1.703125 -0.09375 C 0.9375 -0.09375 0.9375 -0.921875 0.9375 -1.125 C 0.9375 -1.515625 1.21875 -1.953125 1.734375 -1.953125 C 1.984375 -1.953125 2.140625 -1.890625 2.296875 -1.6875 C 2.453125 -1.515625 2.453125 -1.296875 2.453125 -1.03125 C 2.453125 -0.734375 2.453125 -0.546875 2.296875 -0.34375 C 2.15625 -0.1875 1.984375 -0.09375 1.703125 -0.09375 Z M 1.703125 -0.09375 "/>
</g>
<g id="glyph-0-6">
<path d="M 2.125 -1.796875 C 2.640625 -2 2.8125 -2.265625 2.8125 -2.546875 C 2.8125 -3.078125 2.234375 -3.3125 1.6875 -3.3125 C 1.078125 -3.3125 0.578125 -2.96875 0.578125 -2.46875 C 0.578125 -2 0.96875 -1.796875 1.21875 -1.671875 C 0.703125 -1.46875 0.390625 -1.171875 0.390625 -0.765625 C 0.390625 -0.171875 1.0625 0.109375 1.6875 0.109375 C 2.375 0.109375 2.984375 -0.265625 2.984375 -0.84375 C 2.984375 -1.390625 2.46875 -1.640625 2.125 -1.796875 Z M 1.15625 -2.296875 C 0.9375 -2.40625 0.875 -2.53125 0.875 -2.65625 C 0.875 -2.96875 1.28125 -3.125 1.6875 -3.125 C 2.078125 -3.125 2.5 -2.921875 2.5 -2.546875 C 2.5 -2.109375 1.9375 -1.90625 1.921875 -1.90625 C 1.921875 -1.90625 1.921875 -1.90625 1.875 -1.9375 Z M 1.4375 -1.5625 L 2.203125 -1.171875 C 2.390625 -1.078125 2.640625 -0.9375 2.640625 -0.671875 C 2.640625 -0.265625 2.140625 -0.09375 1.6875 -0.09375 C 1.234375 -0.09375 0.734375 -0.3125 0.734375 -0.765625 C 0.734375 -1.265625 1.28125 -1.484375 1.4375 -1.5625 Z M 1.4375 -1.5625 "/>
</g>
<g id="glyph-1-0">
<path d="M 1.390625 -2.75 L 2.484375 -2.75 L 2.484375 -3 L 1.390625 -3 L 1.390625 -4.28125 L 1.15625 -4.28125 C 1.15625 -3.65625 0.875 -2.96875 0.203125 -2.9375 L 0.203125 -2.75 L 0.84375 -2.75 L 0.84375 -0.875 C 0.84375 -0.09375 1.4375 0.0625 1.828125 0.0625 C 2.28125 0.0625 2.609375 -0.328125 2.609375 -0.875 L 2.609375 -1.265625 L 2.375 -1.265625 L 2.375 -0.890625 C 2.375 -0.40625 2.15625 -0.15625 1.875 -0.15625 C 1.390625 -0.15625 1.390625 -0.734375 1.390625 -0.859375 Z M 1.390625 -2.75 "/>
</g>
<g id="glyph-1-1">
<path d="M 3.09375 -1.859375 C 3.09375 -2.234375 3.09375 -2.5 2.78125 -2.75 C 2.5 -2.984375 2.15625 -3.09375 1.75 -3.09375 C 1.09375 -3.09375 0.625 -2.84375 0.625 -2.421875 C 0.625 -2.203125 0.78125 -2.09375 0.953125 -2.09375 C 1.140625 -2.09375 1.28125 -2.21875 1.28125 -2.40625 C 1.28125 -2.53125 1.234375 -2.671875 1.046875 -2.734375 C 1.296875 -2.90625 1.703125 -2.90625 1.734375 -2.90625 C 2.125 -2.90625 2.546875 -2.65625 2.546875 -2.0625 L 2.546875 -1.84375 C 2.171875 -1.828125 1.703125 -1.8125 1.203125 -1.625 C 0.578125 -1.390625 0.375 -1.015625 0.375 -0.703125 C 0.375 -0.109375 1.109375 0.0625 1.59375 0.0625 C 2.15625 0.0625 2.484375 -0.25 2.625 -0.515625 C 2.65625 -0.234375 2.84375 0.03125 3.15625 0.03125 C 3.171875 0.03125 3.859375 0.03125 3.859375 -0.625 L 3.859375 -1.015625 L 3.609375 -1.015625 L 3.609375 -0.625 C 3.609375 -0.5625 3.609375 -0.234375 3.359375 -0.234375 C 3.09375 -0.234375 3.09375 -0.5625 3.09375 -0.640625 Z M 2.546875 -0.984375 C 2.546875 -0.3125 1.96875 -0.125 1.65625 -0.125 C 1.296875 -0.125 0.96875 -0.359375 0.96875 -0.703125 C 0.96875 -1.078125 1.296875 -1.625 2.546875 -1.671875 Z M 2.546875 -0.984375 "/>
</g>
<g id="glyph-1-2">
<path d="M 1.390625 -1.578125 C 1.390625 -2.171875 1.65625 -2.875 2.3125 -2.875 C 2.25 -2.828125 2.203125 -2.734375 2.203125 -2.625 C 2.203125 -2.390625 2.375 -2.296875 2.515625 -2.296875 C 2.671875 -2.296875 2.828125 -2.40625 2.828125 -2.625 C 2.828125 -2.859375 2.609375 -3.0625 2.28125 -3.0625 C 1.9375 -3.0625 1.546875 -2.84375 1.34375 -2.328125 L 1.328125 -2.328125 L 1.328125 -3.0625 L 0.34375 -2.984375 L 0.34375 -2.734375 C 0.8125 -2.734375 0.859375 -2.6875 0.859375 -2.34375 L 0.859375 -0.546875 C 0.859375 -0.25 0.796875 -0.25 0.34375 -0.25 L 0.34375 0 C 0.375 0 0.84375 -0.03125 1.140625 -0.03125 C 1.4375 -0.03125 1.734375 -0.015625 2.03125 0 L 2.03125 -0.25 L 1.890625 -0.25 C 1.390625 -0.25 1.390625 -0.328125 1.390625 -0.5625 Z M 1.390625 -1.578125 "/>
</g>
<g id="glyph-1-3">
<path d="M 1.46875 -4.296875 C 1.46875 -4.484375 1.296875 -4.6875 1.0625 -4.6875 C 0.859375 -4.6875 0.671875 -4.515625 0.671875 -4.296875 C 0.671875 -4.046875 0.875 -3.890625 1.0625 -3.890625 C 1.28125 -3.890625 1.46875 -4.0625 1.46875 -4.296875 Z M 0.40625 -2.984375 L 0.40625 -2.734375 C 0.84375 -2.734375 0.90625 -2.703125 0.90625 -2.359375 L 0.90625 -0.546875 C 0.90625 -0.25 0.84375 -0.25 0.390625 -0.25 L 0.390625 0 C 0.40625 0 0.890625 -0.03125 1.171875 -0.03125 C 1.40625 -0.03125 1.65625 -0.015625 1.90625 0 L 1.90625 -0.25 C 1.5 -0.25 1.4375 -0.25 1.4375 -0.546875 L 1.4375 -3.0625 Z M 0.40625 -2.984375 "/>
</g>
<g id="glyph-1-4">
<path d="M 1.4375 -2.75 L 2.296875 -2.75 L 2.296875 -3 L 1.40625 -3 L 1.40625 -3.78125 C 1.40625 -4.40625 1.78125 -4.703125 2.078125 -4.703125 C 2.140625 -4.703125 2.21875 -4.6875 2.28125 -4.671875 C 2.1875 -4.609375 2.125 -4.5 2.125 -4.390625 C 2.125 -4.203125 2.265625 -4.0625 2.453125 -4.0625 C 2.640625 -4.0625 2.765625 -4.203125 2.765625 -4.390625 C 2.765625 -4.6875 2.46875 -4.890625 2.09375 -4.890625 C 1.53125 -4.890625 0.90625 -4.5 0.90625 -3.78125 L 0.90625 -3 L 0.3125 -3 L 0.3125 -2.75 L 0.90625 -2.75 L 0.90625 -0.546875 C 0.90625 -0.25 0.84375 -0.25 0.390625 -0.25 L 0.390625 0 C 0.421875 0 0.890625 -0.03125 1.1875 -0.03125 C 1.484375 -0.03125 1.78125 -0.015625 2.09375 0 L 2.09375 -0.25 L 1.953125 -0.25 C 1.4375 -0.25 1.4375 -0.328125 1.4375 -0.5625 Z M 1.4375 -2.75 "/>
</g>
<g id="glyph-1-5">
<path d="M 1.390625 -4.828125 L 0.34375 -4.75 L 0.34375 -4.5 C 0.8125 -4.5 0.859375 -4.4375 0.859375 -4.09375 L 0.859375 0 L 1.09375 0 L 1.34375 -0.421875 C 1.609375 -0.078125 1.984375 0.0625 2.359375 0.0625 C 3.28125 0.0625 4.0625 -0.625 4.0625 -1.5 C 4.0625 -2.34375 3.34375 -3.0625 2.4375 -3.0625 C 2.015625 -3.0625 1.640625 -2.90625 1.390625 -2.65625 Z M 1.40625 -2.328125 C 1.609375 -2.65625 1.984375 -2.875 2.40625 -2.875 C 2.78125 -2.875 3.0625 -2.65625 3.203125 -2.4375 C 3.34375 -2.234375 3.421875 -1.96875 3.421875 -1.515625 C 3.421875 -1.34375 3.421875 -0.828125 3.140625 -0.5 C 2.859375 -0.1875 2.53125 -0.125 2.328125 -0.125 C 1.765625 -0.125 1.484375 -0.5625 1.40625 -0.703125 Z M 1.40625 -2.328125 "/>
</g>
<g id="glyph-1-6">
<path d="M 3.0625 -1.578125 C 3.203125 -1.578125 3.25 -1.578125 3.25 -1.734375 C 3.25 -2.34375 2.90625 -3.09375 1.875 -3.09375 C 0.96875 -3.09375 0.265625 -2.375 0.265625 -1.515625 C 0.265625 -0.640625 1.046875 0.0625 1.96875 0.0625 C 2.90625 0.0625 3.25 -0.6875 3.25 -0.828125 C 3.25 -0.859375 3.234375 -0.9375 3.140625 -0.9375 C 3.046875 -0.9375 3.03125 -0.890625 3.015625 -0.828125 C 2.796875 -0.25 2.265625 -0.15625 2.015625 -0.15625 C 1.6875 -0.15625 1.375 -0.296875 1.171875 -0.5625 C 0.90625 -0.890625 0.90625 -1.3125 0.90625 -1.578125 Z M 0.90625 -1.765625 C 0.984375 -2.75 1.609375 -2.90625 1.875 -2.90625 C 2.734375 -2.90625 2.765625 -1.9375 2.765625 -1.765625 Z M 0.90625 -1.765625 "/>
</g>
<g id="glyph-1-7">
<path d="M 2.515625 -2.984375 L 2.515625 -2.734375 C 2.96875 -2.734375 3.03125 -2.6875 3.03125 -2.34375 L 3.03125 -1.15625 C 3.03125 -0.546875 2.640625 -0.125 2.109375 -0.125 C 1.46875 -0.125 1.453125 -0.421875 1.453125 -0.78125 L 1.453125 -3.0625 L 0.375 -2.984375 L 0.375 -2.734375 C 0.890625 -2.734375 0.890625 -2.71875 0.890625 -2.09375 L 0.890625 -1.0625 C 0.890625 -0.578125 0.890625 0.0625 2.0625 0.0625 C 2.21875 0.0625 2.71875 0.0625 3.046875 -0.515625 L 3.0625 -0.515625 L 3.0625 0.0625 L 4.109375 0 L 4.109375 -0.25 C 3.640625 -0.25 3.578125 -0.296875 3.578125 -0.640625 L 3.578125 -3.0625 Z M 2.515625 -2.984375 "/>
</g>
<g id="glyph-1-8">
<path d="M 3.578125 -2.109375 C 3.578125 -2.71875 3.28125 -3.0625 2.53125 -3.0625 C 1.921875 -3.0625 1.578125 -2.703125 1.421875 -2.4375 L 1.421875 -4.828125 L 0.375 -4.75 L 0.375 -4.5 C 0.84375 -4.5 0.890625 -4.453125 0.890625 -4.109375 L 0.890625 -0.546875 C 0.890625 -0.25 0.828125 -0.25 0.375 -0.25 L 0.375 0 C 0.390625 0 0.875 -0.03125 1.171875 -0.03125 C 1.421875 -0.03125 1.90625 0 1.96875 0 L 1.96875 -0.25 C 1.515625 -0.25 1.453125 -0.25 1.453125 -0.546875 L 1.453125 -1.796875 C 1.453125 -2.53125 2.015625 -2.875 2.484375 -2.875 C 2.96875 -2.875 3.03125 -2.484375 3.03125 -2.140625 L 3.03125 -0.546875 C 3.03125 -0.25 2.96875 -0.25 2.515625 -0.25 L 2.515625 0 C 2.53125 0 3.015625 -0.03125 3.296875 -0.03125 C 3.5625 -0.03125 4.046875 0 4.109375 0 L 4.109375 -0.25 C 3.65625 -0.25 3.578125 -0.25 3.578125 -0.546875 Z M 3.578125 -2.109375 "/>
</g>
<g id="glyph-2-0">
<path d="M 1.625 -3 C 1.921875 -3.515625 2.40625 -3.703125 2.78125 -3.703125 C 3.484375 -3.703125 4.015625 -2.890625 4.015625 -1.9375 C 4.015625 -0.90625 3.421875 -0.125 2.6875 -0.125 C 2.28125 -0.125 1.953125 -0.359375 1.734375 -0.671875 C 1.625 -0.84375 1.625 -0.859375 1.625 -1.03125 Z M 1.625 -0.421875 C 1.84375 -0.203125 2.15625 0.09375 2.75 0.09375 C 3.8125 0.09375 4.796875 -0.765625 4.796875 -1.9375 C 4.796875 -3.0625 3.921875 -3.953125 2.859375 -3.953125 C 2.375 -3.953125 1.9375 -3.75 1.59375 -3.390625 L 1.59375 -3.953125 L 0.265625 -3.859375 L 0.265625 -3.578125 C 0.90625 -3.578125 0.953125 -3.515625 0.953125 -3.140625 L 0.953125 1.046875 C 0.953125 1.453125 0.859375 1.453125 0.265625 1.453125 L 0.265625 1.734375 C 0.6875 1.71875 0.859375 1.703125 1.28125 1.703125 C 1.71875 1.703125 1.828125 1.71875 2.3125 1.734375 L 2.3125 1.453125 C 1.71875 1.453125 1.625 1.453125 1.625 1.046875 Z M 1.625 -0.421875 "/>
</g>
<g id="glyph-2-1">
<path d="M 3.578125 -2.046875 C 3.765625 -2.046875 3.8125 -2.046875 3.8125 -2.234375 C 3.8125 -3.15625 3.3125 -4 2.171875 -4 C 1.09375 -4 0.265625 -3.078125 0.265625 -1.96875 C 0.265625 -0.796875 1.203125 0.09375 2.28125 0.09375 C 3.375 0.09375 3.8125 -0.859375 3.8125 -1.0625 C 3.8125 -1.125 3.765625 -1.1875 3.6875 -1.1875 C 3.609375 -1.1875 3.578125 -1.125 3.5625 -1.078125 C 3.265625 -0.171875 2.46875 -0.15625 2.328125 -0.15625 C 1.90625 -0.15625 1.53125 -0.390625 1.328125 -0.703125 C 1.03125 -1.140625 1.03125 -1.671875 1.03125 -2.046875 Z M 1.03125 -2.265625 C 1.125 -3.640625 1.921875 -3.78125 2.171875 -3.78125 C 2.65625 -3.78125 3.203125 -3.40625 3.203125 -2.265625 Z M 1.03125 -2.265625 "/>
</g>
<g id="glyph-2-2">
<path d="M 1.65625 -2.3125 C 1.65625 -3.28125 2.359375 -3.734375 2.890625 -3.734375 C 3.390625 -3.734375 3.546875 -3.375 3.546875 -2.75 L 3.546875 -0.6875 C 3.546875 -0.28125 3.453125 -0.28125 2.859375 -0.28125 L 2.859375 0 C 3.28125 -0.015625 3.453125 -0.03125 3.875 -0.03125 C 4.3125 -0.03125 4.421875 -0.015625 4.890625 0 L 4.890625 -0.28125 C 4.3125 -0.28125 4.203125 -0.28125 4.203125 -0.6875 L 4.203125 -2.3125 C 4.203125 -3.28125 4.90625 -3.734375 5.4375 -3.734375 C 5.9375 -3.734375 6.09375 -3.375 6.09375 -2.75 L 6.09375 -0.6875 C 6.09375 -0.28125 6 -0.28125 5.40625 -0.28125 L 5.40625 0 C 5.828125 -0.015625 6 -0.03125 6.421875 -0.03125 C 6.859375 -0.03125 6.96875 -0.015625 7.4375 0 L 7.4375 -0.28125 C 6.984375 -0.28125 6.765625 -0.28125 6.75 -0.546875 L 6.75 -2.265625 C 6.75 -3.046875 6.75 -3.296875 6.46875 -3.625 C 6.28125 -3.84375 5.921875 -3.953125 5.5 -3.953125 C 4.859375 -3.953125 4.421875 -3.578125 4.171875 -3.09375 C 4.0625 -3.625 3.703125 -3.953125 2.953125 -3.953125 C 2.25 -3.953125 1.8125 -3.484375 1.625 -3.078125 L 1.609375 -3.078125 L 1.609375 -3.953125 L 0.3125 -3.859375 L 0.3125 -3.578125 C 0.921875 -3.578125 1 -3.515625 1 -3.078125 L 1 -0.6875 C 1 -0.28125 0.90625 -0.28125 0.3125 -0.28125 L 0.3125 0 C 0.734375 -0.015625 0.90625 -0.03125 1.328125 -0.03125 C 1.765625 -0.03125 1.875 -0.015625 2.34375 0 L 2.34375 -0.28125 C 1.765625 -0.28125 1.65625 -0.28125 1.65625 -0.6875 Z M 1.65625 -2.3125 "/>
</g>
<g id="glyph-2-3">
<path d="M 3.0625 -0.640625 C 3.09375 -0.265625 3.359375 0.046875 3.75 0.046875 C 3.96875 0.046875 4.53125 -0.078125 4.53125 -0.796875 L 4.53125 -1.296875 L 4.28125 -1.296875 L 4.28125 -0.796875 C 4.28125 -0.703125 4.28125 -0.265625 3.953125 -0.265625 C 3.640625 -0.265625 3.640625 -0.6875 3.640625 -0.828125 L 3.640625 -2.390625 C 3.640625 -2.90625 3.640625 -3.203125 3.234375 -3.578125 C 2.90625 -3.875 2.46875 -4 2.03125 -4 C 1.28125 -4 0.65625 -3.625 0.65625 -3.0625 C 0.65625 -2.78125 0.84375 -2.625 1.078125 -2.625 C 1.3125 -2.625 1.484375 -2.8125 1.484375 -3.03125 C 1.484375 -3.421875 1.09375 -3.46875 1.078125 -3.46875 C 1.328125 -3.703125 1.75 -3.78125 2.015625 -3.78125 C 2.46875 -3.78125 2.96875 -3.4375 2.96875 -2.65625 L 2.96875 -2.359375 C 2.5 -2.34375 1.828125 -2.296875 1.21875 -2.015625 C 0.578125 -1.703125 0.390625 -1.234375 0.390625 -0.875 C 0.390625 -0.140625 1.25 0.09375 1.84375 0.09375 C 2.59375 0.09375 2.9375 -0.390625 3.0625 -0.640625 Z M 2.96875 -1.265625 C 2.96875 -0.390625 2.3125 -0.125 1.90625 -0.125 C 1.5 -0.125 1.09375 -0.421875 1.09375 -0.875 C 1.09375 -1.46875 1.609375 -2.09375 2.96875 -2.140625 Z M 2.96875 -1.265625 "/>
</g>
<g id="glyph-2-4">
<path d="M 1.59375 -1.9375 L 1.59375 -6.203125 L 0.265625 -6.109375 L 0.265625 -5.828125 C 0.875 -5.828125 0.953125 -5.765625 0.953125 -5.328125 L 0.953125 -0.6875 C 0.953125 -0.28125 0.859375 -0.28125 0.265625 -0.28125 L 0.265625 0 C 0.65625 -0.015625 0.890625 -0.03125 1.265625 -0.03125 C 1.625 -0.03125 1.84375 -0.015625 2.25 0 L 2.25 -0.28125 C 1.65625 -0.28125 1.5625 -0.28125 1.5625 -0.6875 L 1.5625 -1.59375 L 2.140625 -2.078125 L 3 -0.90625 C 3.140625 -0.703125 3.21875 -0.59375 3.21875 -0.46875 C 3.21875 -0.390625 3.1875 -0.28125 2.90625 -0.28125 L 2.90625 0 C 3.3125 -0.015625 3.53125 -0.03125 3.875 -0.03125 C 4.140625 -0.03125 4.421875 -0.03125 4.6875 0 L 4.6875 -0.28125 C 4.390625 -0.28125 4.171875 -0.28125 3.859375 -0.71875 L 2.578125 -2.4375 C 3.453125 -3.203125 3.875 -3.546875 4.484375 -3.578125 L 4.484375 -3.859375 C 4.171875 -3.828125 4.140625 -3.828125 3.8125 -3.828125 C 3.546875 -3.828125 3.3125 -3.828125 2.828125 -3.859375 L 2.828125 -3.578125 C 2.96875 -3.5625 3.078125 -3.5 3.078125 -3.359375 C 3.078125 -3.1875 2.9375 -3.078125 2.84375 -3 Z M 1.59375 -1.9375 "/>
</g>
<g id="glyph-2-5">
<path d="M 1.640625 -3.953125 L 0.359375 -3.859375 L 0.359375 -3.578125 C 0.921875 -3.578125 1.015625 -3.515625 1.015625 -3.078125 L 1.015625 -0.6875 C 1.015625 -0.28125 0.90625 -0.28125 0.328125 -0.28125 L 0.328125 0 C 0.71875 -0.015625 0.90625 -0.03125 1.3125 -0.03125 C 1.453125 -0.03125 1.828125 -0.03125 2.265625 0 L 2.265625 -0.28125 C 1.6875 -0.28125 1.640625 -0.328125 1.640625 -0.671875 Z M 1.671875 -5.5 C 1.671875 -5.78125 1.453125 -5.984375 1.1875 -5.984375 C 0.90625 -5.984375 0.703125 -5.765625 0.703125 -5.5 C 0.703125 -5.25 0.90625 -5.015625 1.1875 -5.015625 C 1.453125 -5.015625 1.671875 -5.234375 1.671875 -5.5 Z M 1.671875 -5.5 "/>
</g>
<g id="glyph-2-6">
<path d="M 1.65625 -2.3125 C 1.65625 -3.265625 2.328125 -3.734375 2.890625 -3.734375 C 3.421875 -3.734375 3.546875 -3.28125 3.546875 -2.75 L 3.546875 -0.6875 C 3.546875 -0.28125 3.4375 -0.28125 2.84375 -0.28125 L 2.84375 0 C 3.265625 -0.015625 3.4375 -0.03125 3.875 -0.03125 C 4.296875 -0.03125 4.421875 -0.015625 4.890625 0 L 4.890625 -0.28125 C 4.4375 -0.28125 4.203125 -0.28125 4.203125 -0.546875 L 4.203125 -2.265625 C 4.203125 -3.015625 4.203125 -3.265625 3.953125 -3.578125 C 3.75 -3.828125 3.40625 -3.953125 2.953125 -3.953125 C 2.125 -3.953125 1.75 -3.328125 1.625 -3.078125 L 1.609375 -3.078125 L 1.609375 -3.953125 L 0.3125 -3.859375 L 0.3125 -3.578125 C 0.921875 -3.578125 1 -3.515625 1 -3.078125 L 1 -0.6875 C 1 -0.28125 0.90625 -0.28125 0.3125 -0.28125 L 0.3125 0 C 0.734375 -0.015625 0.90625 -0.03125 1.328125 -0.03125 C 1.765625 -0.03125 1.875 -0.015625 2.34375 0 L 2.34375 -0.28125 C 1.765625 -0.28125 1.65625 -0.28125 1.65625 -0.6875 Z M 1.65625 -2.3125 "/>
</g>
<g id="glyph-2-7">
<path d="M 3.046875 2.125 C 3.046875 2.078125 3.015625 2.0625 2.96875 2 C 1.8125 0.9375 1.46875 -0.671875 1.46875 -2.234375 C 1.46875 -3.625 1.734375 -5.296875 3 -6.5 C 3.03125 -6.53125 3.046875 -6.5625 3.046875 -6.609375 C 3.046875 -6.671875 3 -6.703125 2.9375 -6.703125 C 2.828125 -6.703125 2.03125 -6.0625 1.546875 -5.078125 C 1.125 -4.234375 0.90625 -3.3125 0.90625 -2.25 C 0.90625 -1.59375 0.984375 -0.578125 1.46875 0.46875 C 2 1.578125 2.828125 2.21875 2.9375 2.21875 C 3 2.21875 3.046875 2.1875 3.046875 2.125 Z M 3.046875 2.125 "/>
</g>
<g id="glyph-2-8">
<path d="M 2.65625 -2.25 C 2.65625 -2.96875 2.5625 -3.953125 2.09375 -4.953125 C 1.5625 -6.046875 0.734375 -6.703125 0.625 -6.703125 C 0.53125 -6.703125 0.515625 -6.625 0.515625 -6.609375 C 0.515625 -6.5625 0.53125 -6.53125 0.59375 -6.46875 C 1.125 -6 2.09375 -4.796875 2.09375 -2.25 C 2.09375 -0.96875 1.875 0.8125 0.578125 2.015625 C 0.546875 2.046875 0.515625 2.078125 0.515625 2.125 C 0.515625 2.15625 0.53125 2.21875 0.625 2.21875 C 0.734375 2.21875 1.53125 1.578125 2.015625 0.609375 C 2.453125 -0.25 2.65625 -1.171875 2.65625 -2.25 Z M 2.65625 -2.25 "/>
</g>
<g id="glyph-2-9">
<path d="M 2.90625 -3.578125 L 2.90625 -3.859375 L 1.609375 -3.859375 L 1.609375 -5.5 L 1.359375 -5.5 C 1.34375 -4.75 1.03125 -3.828125 0.171875 -3.796875 L 0.171875 -3.578125 L 0.953125 -3.578125 L 0.953125 -1.109375 C 0.953125 -0.109375 1.671875 0.09375 2.140625 0.09375 C 2.75 0.09375 3.0625 -0.46875 3.0625 -1.109375 L 3.0625 -1.625 L 2.8125 -1.625 L 2.8125 -1.140625 C 2.8125 -0.46875 2.53125 -0.15625 2.203125 -0.15625 C 1.609375 -0.15625 1.609375 -0.9375 1.609375 -1.09375 L 1.609375 -3.578125 Z M 2.90625 -3.578125 "/>
</g>
<g id="glyph-2-10">
<path d="M 1.59375 -2.046875 C 1.59375 -2.40625 1.6875 -3.734375 2.703125 -3.734375 L 2.703125 -3.71875 C 2.6875 -3.703125 2.546875 -3.609375 2.546875 -3.390625 C 2.546875 -3.140625 2.734375 -3 2.9375 -3 C 3.125 -3 3.328125 -3.125 3.328125 -3.390625 C 3.328125 -3.6875 3.0625 -3.953125 2.65625 -3.953125 C 2.125 -3.953125 1.75 -3.578125 1.546875 -3.015625 L 1.53125 -3.015625 L 1.53125 -3.953125 L 0.265625 -3.859375 L 0.265625 -3.578125 C 0.875 -3.578125 0.953125 -3.515625 0.953125 -3.078125 L 0.953125 -0.6875 C 0.953125 -0.28125 0.859375 -0.28125 0.265625 -0.28125 L 0.265625 0 C 0.734375 -0.015625 0.859375 -0.03125 1.3125 -0.03125 C 1.671875 -0.03125 1.890625 -0.015625 2.453125 0 L 2.453125 -0.28125 L 2.265625 -0.28125 C 1.625 -0.28125 1.59375 -0.375 1.59375 -0.703125 Z M 1.59375 -2.046875 "/>
</g>
<g id="glyph-2-11">
<path d="M 2.6875 -3.578125 L 2.6875 -3.859375 L 1.625 -3.859375 L 1.625 -4.859375 C 1.625 -5.671875 2.0625 -6.078125 2.4375 -6.078125 C 2.53125 -6.078125 2.625 -6.0625 2.703125 -6.03125 C 2.625 -5.984375 2.46875 -5.875 2.46875 -5.65625 C 2.46875 -5.421875 2.640625 -5.265625 2.875 -5.265625 C 3.109375 -5.265625 3.265625 -5.4375 3.265625 -5.671875 C 3.265625 -6 2.9375 -6.296875 2.4375 -6.296875 C 1.75 -6.296875 1.015625 -5.78125 1.015625 -4.875 L 1.015625 -3.859375 L 0.296875 -3.859375 L 0.296875 -3.578125 L 1.015625 -3.578125 L 1.015625 -0.6875 C 1.015625 -0.28125 0.90625 -0.28125 0.328125 -0.28125 L 0.328125 0 C 0.796875 -0.015625 0.90625 -0.03125 1.375 -0.03125 C 1.71875 -0.03125 1.9375 -0.015625 2.5 0 L 2.5 -0.28125 L 2.328125 -0.28125 C 1.671875 -0.28125 1.640625 -0.375 1.640625 -0.703125 L 1.640625 -3.578125 Z M 2.6875 -3.578125 "/>
</g>
<g id="glyph-2-12">
<path d="M 1.625 -2.84375 C 1.625 -3.015625 1.625 -3.03125 1.71875 -3.171875 C 2.015625 -3.578125 2.453125 -3.734375 2.796875 -3.734375 C 3.1875 -3.734375 3.546875 -3.515625 3.765625 -3.140625 C 4 -2.75 4.015625 -2.21875 4.015625 -1.9375 C 4.015625 -1.515625 3.96875 -1.046875 3.734375 -0.6875 C 3.546875 -0.40625 3.171875 -0.125 2.703125 -0.125 C 2.296875 -0.125 1.953125 -0.34375 1.75 -0.671875 C 1.625 -0.859375 1.625 -0.859375 1.625 -1.03125 Z M 1.53125 -0.546875 C 1.8125 -0.15625 2.265625 0.09375 2.75 0.09375 C 3.8125 0.09375 4.796875 -0.765625 4.796875 -1.9375 C 4.796875 -3.046875 3.90625 -3.953125 2.828125 -3.953125 C 2.21875 -3.953125 1.8125 -3.640625 1.59375 -3.390625 L 1.59375 -6.203125 L 0.265625 -6.109375 L 0.265625 -5.828125 C 0.875 -5.828125 0.953125 -5.765625 0.953125 -5.328125 L 0.953125 0 L 1.203125 0 Z M 1.53125 -0.546875 "/>
</g>
<g id="glyph-2-13">
<path d="M 3.546875 -1.5 C 3.546875 -0.703125 3.09375 -0.125 2.453125 -0.125 C 1.703125 -0.125 1.65625 -0.515625 1.65625 -0.984375 L 1.65625 -3.953125 L 0.3125 -3.859375 L 0.3125 -3.578125 C 1 -3.578125 1 -3.546875 1 -2.75 L 1 -1.40625 C 1 -0.828125 1 -0.453125 1.40625 -0.140625 C 1.671875 0.03125 2.03125 0.09375 2.390625 0.09375 C 2.859375 0.09375 3.296875 -0.109375 3.5625 -0.640625 L 3.5625 0.09375 L 4.890625 0 L 4.890625 -0.28125 C 4.28125 -0.28125 4.203125 -0.34375 4.203125 -0.78125 L 4.203125 -3.953125 L 2.84375 -3.859375 L 2.84375 -3.578125 C 3.453125 -3.578125 3.546875 -3.515625 3.546875 -3.078125 Z M 3.546875 -1.5 "/>
</g>
<g id="glyph-2-14">
<path d="M 2.046875 -3.15625 L 2.046875 -5.453125 C 2.046875 -5.6875 2.0625 -5.78125 2.234375 -5.8125 C 2.3125 -5.828125 2.59375 -5.828125 2.78125 -5.828125 C 3.5625 -5.828125 4.6875 -5.828125 4.6875 -4.5 C 4.6875 -3.734375 4.296875 -3.15625 3.078125 -3.15625 Z M 4.0625 -3.03125 C 4.90625 -3.265625 5.609375 -3.796875 5.609375 -4.5 C 5.609375 -5.375 4.515625 -6.109375 3.203125 -6.109375 L 0.359375 -6.109375 L 0.359375 -5.828125 L 0.5625 -5.828125 C 1.25 -5.828125 1.265625 -5.734375 1.265625 -5.390625 L 1.265625 -0.703125 C 1.265625 -0.375 1.25 -0.28125 0.5625 -0.28125 L 0.359375 -0.28125 L 0.359375 0 C 0.78125 -0.03125 1.21875 -0.03125 1.65625 -0.03125 C 2.078125 -0.03125 2.53125 -0.03125 2.953125 0 L 2.953125 -0.28125 L 2.75 -0.28125 C 2.0625 -0.28125 2.046875 -0.375 2.046875 -0.703125 L 2.046875 -2.9375 L 3.125 -2.9375 C 3.765625 -2.9375 4.046875 -2.59375 4.078125 -2.5625 C 4.359375 -2.234375 4.359375 -2.09375 4.359375 -1.46875 C 4.359375 -0.859375 4.359375 -0.46875 4.78125 -0.140625 C 5.203125 0.203125 5.734375 0.203125 5.84375 0.203125 C 6.59375 0.203125 6.71875 -0.578125 6.71875 -0.796875 C 6.71875 -0.84375 6.71875 -0.953125 6.59375 -0.953125 C 6.484375 -0.953125 6.484375 -0.875 6.46875 -0.796875 C 6.421875 -0.234375 6.15625 -0.03125 5.875 -0.03125 C 5.59375 -0.03125 5.484375 -0.203125 5.421875 -0.359375 C 5.328125 -0.546875 5.25 -1.15625 5.203125 -1.5625 C 5.125 -2.125 5.046875 -2.71875 4.0625 -3.03125 Z M 4.0625 -3.03125 "/>
</g>
<g id="glyph-3-0">
<path d="M 1.75 -1.96875 C 2.25 -1.96875 2.59375 -1.640625 2.59375 -1.03125 C 2.59375 -0.375 2.203125 -0.09375 1.765625 -0.09375 C 1.609375 -0.09375 1 -0.125 0.71875 -0.46875 C 0.953125 -0.5 1.046875 -0.65625 1.046875 -0.8125 C 1.046875 -1.015625 0.90625 -1.15625 0.71875 -1.15625 C 0.546875 -1.15625 0.375 -1.046875 0.375 -0.796875 C 0.375 -0.203125 1.03125 0.125 1.78125 0.125 C 2.671875 0.125 3.25 -0.4375 3.25 -1.03125 C 3.25 -1.46875 2.921875 -1.921875 2.21875 -2.09375 C 2.6875 -2.25 3.0625 -2.640625 3.0625 -3.125 C 3.0625 -3.609375 2.5 -3.953125 1.796875 -3.953125 C 1.09375 -3.953125 0.5625 -3.640625 0.5625 -3.15625 C 0.5625 -2.890625 0.765625 -2.828125 0.875 -2.828125 C 1.03125 -2.828125 1.203125 -2.921875 1.203125 -3.140625 C 1.203125 -3.328125 1.0625 -3.421875 0.90625 -3.453125 C 1.1875 -3.765625 1.71875 -3.765625 1.78125 -3.765625 C 2.078125 -3.765625 2.46875 -3.625 2.46875 -3.125 C 2.46875 -2.796875 2.28125 -2.21875 1.6875 -2.1875 C 1.578125 -2.1875 1.421875 -2.171875 1.359375 -2.171875 C 1.296875 -2.171875 1.234375 -2.15625 1.234375 -2.078125 C 1.234375 -1.96875 1.296875 -1.96875 1.40625 -1.96875 Z M 1.75 -1.96875 "/>
</g>
</g>
<clipPath id="clip-0">
<path clip-rule="nonzero" d="M 32.992188 71 L 151 71 L 151 127.636719 L 32.992188 127.636719 Z M 32.992188 71 "/>
</clipPath>
<clipPath id="clip-1">
<path clip-rule="nonzero" d="M 117 19.730469 L 231.34375 19.730469 L 231.34375 106 L 117 106 Z M 117 19.730469 "/>
</clipPath>
</defs>
<path fill="none" stroke-width="0.19925" stroke-linecap="butt" stroke-linejoin="miter" stroke="rgb(50%, 50%, 50%)" stroke-opacity="1" stroke-miterlimit="10" d="M 52.664505 2.479517 L 52.664505 6.730612 M 101.424764 2.479517 L 101.424764 6.730612 M 150.18894 2.479517 L 150.18894 6.730612 M 198.953117 2.479517 L 198.953117 6.730612 " transform="matrix(0.996986, 0, 0, -0.996986, 32.990334, 127.636105)"/>
<path fill="none" stroke-width="0.19925" stroke-linecap="butt" stroke-linejoin="miter" stroke="rgb(50%, 50%, 50%)" stroke-opacity="1" stroke-miterlimit="10" d="M 1.77674 27.633463 L 6.027835 27.633463 M 1.77674 50.659902 L 6.027835 50.659902 M 1.77674 73.69026 L 6.027835 73.69026 M 1.77674 96.716699 L 6.027835 96.716699 " transform="matrix(0.996986, 0, 0, -0.996986, 32.990334, 127.636105)"/>
<path fill="none" stroke-width="0.3985" stroke-linecap="butt" stroke-linejoin="miter" stroke="rgb(24.705505%, 29.019165%, 33.332825%)" stroke-opacity="1" stroke-miterlimit="10" d="M 0.00185866 4.607023 L 195.289731 4.607023 " transform="matrix(0.996986, 0, 0, -0.996986, 32.990334, 127.636105)"/>
<path fill-rule="nonzero" fill="rgb(24.705505%, 29.019165%, 33.332825%)" fill-opacity="1" stroke-width="0.3985" stroke-linecap="butt" stroke-linejoin="miter" stroke="rgb(24.705505%, 29.019165%, 33.332825%)" stroke-opacity="1" stroke-miterlimit="10" d="M 5.102848 0.00143325 L 0.644096 1.678363 L 2.105532 0.00143325 L 0.644096 -1.679415 Z M 5.102848 0.00143325 " transform="matrix(0.996986, 0, 0, -0.996986, 225.689877, 123.044398)"/>
<path fill="none" stroke-width="0.3985" stroke-linecap="butt" stroke-linejoin="miter" stroke="rgb(24.705505%, 29.019165%, 33.332825%)" stroke-opacity="1" stroke-miterlimit="10" d="M 3.900329 -0.000615491 L 3.900329 104.568492 " transform="matrix(0.996986, 0, 0, -0.996986, 32.990334, 127.636105)"/>
<path fill-rule="nonzero" fill="rgb(24.705505%, 29.019165%, 33.332825%)" fill-opacity="1" stroke-width="0.3985" stroke-linecap="butt" stroke-linejoin="miter" stroke="rgb(24.705505%, 29.019165%, 33.332825%)" stroke-opacity="1" stroke-miterlimit="10" d="M 5.101719 0.000671488 L 0.642967 1.677601 L 2.104403 0.000671488 L 0.642967 -1.680176 Z M 5.101719 0.000671488 " transform="matrix(0, -0.996986, -0.996986, 0, 36.879576, 25.383216)"/>
<g fill="rgb(0%, 0%, 0%)" fill-opacity="1">
<use xlink:href="#glyph-0-0" x="83.804702" y="131.873294"/>
</g>
<g fill="rgb(0%, 0%, 0%)" fill-opacity="1">
<use xlink:href="#glyph-0-1" x="130.729829" y="131.873294"/>
<use xlink:href="#glyph-0-2" x="134.109882" y="131.873294"/>
</g>
<g fill="rgb(0%, 0%, 0%)" fill-opacity="1">
<use xlink:href="#glyph-0-1" x="179.344846" y="131.873294"/>
<use xlink:href="#glyph-0-0" x="182.7249" y="131.873294"/>
</g>
<g fill="rgb(0%, 0%, 0%)" fill-opacity="1">
<use xlink:href="#glyph-0-3" x="227.959864" y="131.873294"/>
<use xlink:href="#glyph-0-2" x="231.339917" y="131.873294"/>
</g>
<g fill="rgb(0%, 0%, 0%)" fill-opacity="1">
<use xlink:href="#glyph-0-3" x="24.491031" y="101.686561"/>
<use xlink:href="#glyph-0-2" x="27.871085" y="101.686561"/>
</g>
<g fill="rgb(0%, 0%, 0%)" fill-opacity="1">
<use xlink:href="#glyph-0-4" x="24.491031" y="78.727974"/>
<use xlink:href="#glyph-0-2" x="27.871085" y="78.727974"/>
</g>
<g fill="rgb(0%, 0%, 0%)" fill-opacity="1">
<use xlink:href="#glyph-0-5" x="24.491031" y="55.770384"/>
<use xlink:href="#glyph-0-2" x="27.871085" y="55.770384"/>
</g>
<g fill="rgb(0%, 0%, 0%)" fill-opacity="1">
<use xlink:href="#glyph-0-6" x="24.491031" y="32.811797"/>
<use xlink:href="#glyph-0-2" x="27.871085" y="32.811797"/>
</g>
<g clip-path="url(#clip-0)">
<path fill="none" stroke-width="1.19553" stroke-linecap="butt" stroke-linejoin="miter" stroke="rgb(18.03894%, 48.234558%, 70.979309%)" stroke-opacity="1" stroke-miterlimit="10" d="M 3.900329 4.607023 L 4.390086 4.779418 L 4.875925 4.951813 L 5.365683 5.124207 L 6.337362 5.468996 L 6.827119 5.641391 L 7.312959 5.813786 L 7.802716 5.98618 L 8.288556 6.158575 L 8.778313 6.33097 L 9.264153 6.507282 L 9.75391 6.679677 L 10.23975 6.852072 L 10.729507 7.024466 L 11.701186 7.369256 L 12.190944 7.54165 L 12.676783 7.714045 L 13.166541 7.88644 L 13.65238 8.058834 L 14.142138 8.231229 L 14.627977 8.403624 L 15.117735 8.576018 L 15.603574 8.752331 L 16.093332 8.924726 L 17.065011 9.269515 L 17.554768 9.441909 L 18.040608 9.614304 L 18.530365 9.786699 L 19.016205 9.959093 L 19.505962 10.131488 L 19.991802 10.303883 L 20.481559 10.476277 L 20.967399 10.648672 L 21.457156 10.824985 L 21.942996 10.997379 L 22.432753 11.169774 L 23.404432 11.514563 L 23.894189 11.686958 L 24.380029 11.859353 L 24.869786 12.031747 L 25.355626 12.204142 L 25.845383 12.376537 L 26.331223 12.548931 L 26.82098 12.721326 L 27.30682 12.89372 L 27.796577 13.070033 L 28.768256 13.414822 L 29.258014 13.587217 L 29.743853 13.759612 L 30.233611 13.932006 L 30.71945 14.104401 L 31.209208 14.276796 L 31.695047 14.44919 L 32.184805 14.621585 L 32.670644 14.79398 L 33.160402 14.966374 L 33.646241 15.142687 L 34.132081 15.315082 L 34.621838 15.487476 L 35.107678 15.659871 L 35.597435 15.832266 L 36.083275 16.00466 L 36.573032 16.177055 L 37.058872 16.34945 L 37.548629 16.521844 L 38.034469 16.694239 L 38.524226 16.866633 L 39.010066 17.039028 L 39.495905 17.215341 L 39.985663 17.387735 L 40.471502 17.56013 L 40.961259 17.732525 L 41.447099 17.904919 L 41.936856 18.077314 L 42.422696 18.249709 L 42.912453 18.422103 L 43.398293 18.594498 L 43.88805 18.766893 L 44.859729 19.111682 L 45.349487 19.284077 L 45.835326 19.460389 L 46.325084 19.632784 L 46.810923 19.805179 L 47.300681 19.977573 L 47.78652 20.149968 L 48.276278 20.322363 L 48.762117 20.494757 L 49.251875 20.667152 L 50.223554 21.011941 L 50.713311 21.184336 L 51.199151 21.35673 L 51.688908 21.533043 L 52.174748 21.705438 L 52.664505 21.877832 L 53.150345 22.050227 L 53.640102 22.222622 L 54.125942 22.395016 L 54.615699 22.567411 L 55.101539 22.739806 L 55.591296 22.9122 L 56.562975 23.25699 L 57.052733 23.429384 L 57.538572 23.601779 L 58.02833 23.778092 L 58.514169 23.950486 L 59.003926 24.122881 L 59.489766 24.295276 L 59.979523 24.46767 L 60.465363 24.640065 L 60.95512 24.812459 L 61.926799 25.157249 L 62.416557 25.329643 L 62.902396 25.502038 L 63.392154 25.674433 L 63.877993 25.850745 L 64.367751 26.02314 L 64.85359 26.195535 L 65.343348 26.367929 L 65.829187 26.540324 L 66.318945 26.712719 L 67.290624 27.057508 L 67.780381 27.229903 L 68.266221 27.402297 L 68.755978 27.574692 L 69.241818 27.747087 L 69.731575 27.919481 L 70.217415 28.095794 L 70.707172 28.268189 L 71.193012 28.440583 L 71.682769 28.612978 L 72.654448 28.957767 L 73.144206 29.130162 L 73.630045 29.302556 L 74.119803 29.474951 L 74.605642 29.647346 L 75.0954 29.81974 L 75.581239 29.992135 L 76.070997 30.168448 L 76.556836 30.340842 L 77.046594 30.513237 L 78.018272 30.858026 L 78.50803 31.030421 L 78.993869 31.202816 L 79.483627 31.37521 L 79.969466 31.547605 L 80.459224 31.72 L 80.945063 31.892394 L 81.434821 32.064789 L 81.92066 32.237183 L 82.410418 32.413496 L 82.896257 32.585891 L 83.386015 32.758285 L 84.357694 33.103075 L 84.847451 33.275469 L 85.333291 33.447864 L 85.823048 33.620259 L 86.308888 33.792653 L 86.798645 33.965048 L 87.284485 34.137443 L 87.774242 34.309837 L 88.260082 34.48615 L 88.749839 34.658545 L 89.721518 35.003334 L 90.211276 35.175729 L 90.697115 35.348123 L 91.186873 35.520518 L 91.672712 35.692913 L 92.16247 35.865307 L 92.648309 36.037702 L 93.138067 36.210096 L 93.623906 36.382491 L 94.113664 36.558804 L 95.085342 36.903593 L 95.5751 37.075988 L 96.060939 37.248382 L 96.550697 37.420777 L 97.036536 37.593172 L 97.526294 37.765566 L 98.012133 37.937961 L 98.501891 38.110356 L 98.98773 38.28275 L 99.477488 38.455145 L 99.963327 38.62754 L 100.449167 38.803852 L 100.938924 38.976247 L 101.424764 39.148642 " transform="matrix(0.996986, 0, 0, -0.996986, 32.990334, 127.636105)"/>
</g>
<g clip-path="url(#clip-1)">
<path fill="none" stroke-width="1.19553" stroke-linecap="butt" stroke-linejoin="miter" stroke="rgb(90.979004%, 43.920898%, 22.744751%)" stroke-opacity="1" stroke-miterlimit="10" d="M 101.424764 39.148642 L 102.302409 39.767695 L 102.741232 40.08114 L 103.618877 40.700193 L 104.0577 41.013638 L 104.935346 41.632692 L 105.374168 41.946137 L 105.812991 42.255663 L 106.251814 42.569108 L 106.694555 42.878635 L 107.133377 43.188162 L 107.5722 43.501606 L 108.449846 44.12066 L 108.888668 44.434105 L 109.766314 45.053158 L 110.205137 45.366603 L 111.082782 45.985657 L 111.521605 46.299101 L 112.39925 46.918155 L 112.838073 47.2316 L 113.715718 47.850653 L 114.154541 48.164098 L 115.032187 48.783151 L 115.471009 49.096596 L 116.348655 49.71565 L 116.787478 50.029095 L 117.665123 50.648148 L 118.103946 50.961593 L 118.542769 51.27112 L 118.981591 51.584564 L 119.859237 52.203618 L 120.29806 52.517063 L 121.175705 53.136116 L 121.614528 53.449561 L 122.492173 54.068615 L 122.930996 54.382059 L 123.808641 55.001113 L 124.247464 55.314558 L 125.12511 55.933611 L 125.563932 56.247056 L 126.441578 56.86611 L 126.880401 57.179554 L 127.758046 57.798608 L 128.196869 58.112053 L 129.074514 58.731106 L 129.513337 59.044551 L 130.390982 59.663605 L 130.829805 59.977049 L 131.707451 60.596103 L 132.146273 60.909548 L 132.585096 61.219074 L 133.023919 61.532519 L 133.901564 62.151573 L 134.340387 62.465018 L 135.218033 63.084071 L 135.656855 63.397516 L 136.534501 64.016569 L 136.973324 64.330014 L 137.850969 64.949068 L 138.289792 65.262512 L 139.167437 65.881566 L 139.60626 66.195011 L 140.483905 66.814064 L 140.922728 67.127509 L 141.800374 67.746563 L 142.239196 68.060007 L 143.116842 68.679061 L 143.555665 68.992506 L 144.43331 69.611559 L 144.872133 69.925004 L 145.310956 70.234531 L 145.749778 70.547976 L 146.627424 71.167029 L 147.066246 71.480474 L 147.943892 72.099527 L 148.382715 72.412972 L 148.825456 72.722499 L 149.264278 73.032026 L 149.703101 73.345471 L 150.580746 73.964524 L 151.019569 74.277969 L 151.897215 74.897022 L 152.336037 75.210467 L 153.213683 75.829521 L 153.652506 76.142966 L 154.530151 76.762019 L 154.968974 77.075464 L 155.846619 77.694517 L 156.285442 78.007962 L 157.163088 78.627016 L 157.60191 78.94046 L 158.040733 79.249987 L 158.479556 79.563432 L 159.357201 80.182486 L 159.796024 80.49593 L 160.673669 81.114984 L 161.112492 81.428429 L 161.990138 82.047482 L 162.42896 82.360927 L 163.306606 82.97998 L 163.745429 83.293425 L 164.623074 83.912479 L 165.061897 84.225924 L 165.939542 84.844977 L 166.378365 85.158422 L 167.25601 85.777475 L 167.694833 86.09092 L 168.572479 86.709974 L 169.011301 87.023419 L 169.888947 87.642472 L 170.32777 87.955917 L 170.766592 88.265444 L 171.205415 88.578888 L 172.083061 89.197942 L 172.521883 89.511387 L 173.399529 90.13044 L 173.838352 90.443885 L 174.715997 91.062939 L 175.15482 91.376383 L 176.032465 91.995437 L 176.471288 92.308882 L 177.348933 92.927935 L 177.787756 93.24138 L 178.665402 93.860434 L 179.104224 94.173878 L 179.98187 94.792932 L 180.420693 95.106377 L 181.298338 95.72543 L 181.737161 96.038875 L 182.614806 96.657928 L 183.053629 96.971373 L 183.492452 97.2809 L 183.931274 97.594345 L 184.80892 98.213398 L 185.247743 98.526843 L 186.125388 99.145897 L 186.564211 99.459341 L 187.441856 100.078395 L 187.880679 100.39184 L 188.758325 101.010893 L 189.197147 101.324338 " transform="matrix(0.996986, 0, 0, -0.996986, 32.990334, 127.636105)"/>
</g>
<path fill-rule="nonzero" fill="rgb(75.292969%, 22.3526%, 16.862488%)" fill-opacity="1" stroke-width="0.3985" stroke-linecap="butt" stroke-linejoin="miter" stroke="rgb(75.292969%, 22.3526%, 16.862488%)" stroke-opacity="1" stroke-miterlimit="10" d="M 103.419056 39.148642 C 103.419056 40.249616 102.525739 41.139016 101.424764 41.139016 C 100.327707 41.139016 99.434389 40.249616 99.434389 39.148642 C 99.434389 38.047667 100.327707 37.154349 101.424764 37.154349 C 102.525739 37.154349 103.419056 38.047667 103.419056 39.148642 Z M 103.419056 39.148642 " transform="matrix(0.996986, 0, 0, -0.996986, 32.990334, 127.636105)"/>
<g fill="rgb(75.292969%, 22.3526%, 16.862488%)" fill-opacity="1">
<use xlink:href="#glyph-1-0" x="80.799787" y="77.246453"/>
<use xlink:href="#glyph-1-1" x="83.903508" y="77.246453"/>
<use xlink:href="#glyph-1-2" x="87.863116" y="77.246453"/>
<use xlink:href="#glyph-1-3" x="90.966836" y="77.246453"/>
<use xlink:href="#glyph-1-4" x="93.215365" y="77.246453"/>
</g>
<g fill="rgb(75.292969%, 22.3526%, 16.862488%)" fill-opacity="1">
<use xlink:href="#glyph-1-5" x="98.354859" y="77.246453"/>
</g>
<g fill="rgb(75.292969%, 22.3526%, 16.862488%)" fill-opacity="1">
<use xlink:href="#glyph-1-6" x="102.957599" y="77.246453"/>
<use xlink:href="#glyph-1-2" x="106.488915" y="77.246453"/>
<use xlink:href="#glyph-1-7" x="109.592636" y="77.246453"/>
<use xlink:href="#glyph-1-5" x="113.979839" y="77.246453"/>
<use xlink:href="#glyph-1-1" x="118.367043" y="77.246453"/>
<use xlink:href="#glyph-1-8" x="122.32665" y="77.246453"/>
</g>
<g fill="rgb(0%, 0%, 0%)" fill-opacity="1">
<use xlink:href="#glyph-2-0" x="234.849035" y="125.74582"/>
</g>
<g fill="rgb(0%, 0%, 0%)" fill-opacity="1">
<use xlink:href="#glyph-2-1" x="240.212659" y="125.74582"/>
</g>
<g fill="rgb(0%, 0%, 0%)" fill-opacity="1">
<use xlink:href="#glyph-2-2" x="244.2908" y="125.74582"/>
<use xlink:href="#glyph-2-3" x="251.947373" y="125.74582"/>
<use xlink:href="#glyph-2-4" x="256.541317" y="125.74582"/>
</g>
<g fill="rgb(0%, 0%, 0%)" fill-opacity="1">
<use xlink:href="#glyph-2-3" x="260.880488" y="125.74582"/>
<use xlink:href="#glyph-2-5" x="265.474432" y="125.74582"/>
<use xlink:href="#glyph-2-3" x="268.026623" y="125.74582"/>
<use xlink:href="#glyph-2-6" x="272.620567" y="125.74582"/>
</g>
<g fill="rgb(0%, 0%, 0%)" fill-opacity="1">
<use xlink:href="#glyph-2-7" x="280.791153" y="125.74582"/>
<use xlink:href="#glyph-2-2" x="284.36422" y="125.74582"/>
</g>
<g fill="rgb(0%, 0%, 0%)" fill-opacity="1">
<use xlink:href="#glyph-3-0" x="292.019187" y="121.948302"/>
</g>
<g fill="rgb(0%, 0%, 0%)" fill-opacity="1">
<use xlink:href="#glyph-2-8" x="296.157675" y="125.74582"/>
</g>
<g fill="rgb(0%, 0%, 0%)" fill-opacity="1">
<use xlink:href="#glyph-2-9" x="7.574178" y="13.988707"/>
<use xlink:href="#glyph-2-3" x="11.147245" y="13.988707"/>
<use xlink:href="#glyph-2-10" x="15.741189" y="13.988707"/>
<use xlink:href="#glyph-2-5" x="19.334816" y="13.988707"/>
<use xlink:href="#glyph-2-11" x="21.887007" y="13.988707"/>
</g>
<g fill="rgb(0%, 0%, 0%)" fill-opacity="1">
<use xlink:href="#glyph-2-7" x="27.760175" y="13.988707"/>
<use xlink:href="#glyph-2-10" x="31.333242" y="13.988707"/>
<use xlink:href="#glyph-2-5" x="34.92687" y="13.988707"/>
<use xlink:href="#glyph-2-12" x="37.479061" y="13.988707"/>
<use xlink:href="#glyph-2-13" x="42.583443" y="13.988707"/>
</g>
<g fill="rgb(0%, 0%, 0%)" fill-opacity="1">
<use xlink:href="#glyph-2-14" x="50.74509" y="13.988707"/>
<use xlink:href="#glyph-2-0" x="57.507726" y="13.988707"/>
<use xlink:href="#glyph-2-8" x="62.612108" y="13.988707"/>
</g>
</svg>
