<?xml version="1.0" encoding="UTF-8"?>
<svg xmlns="http://www.w3.org/2000/svg" xmlns:xlink="http://www.w3.org/1999/xlink" viewBox="0 0 120.632 155.632">
<defs>
<g>
<g id="glyph-0-0">
<path d="M 2.171875 -4.609375 C 2.1875 -4.625 2.203125 -4.71875 2.203125 -4.734375 C 2.203125 -4.765625 2.171875 -4.828125 2.09375 -4.828125 C 1.953125 -4.828125 1.375 -4.765625 1.203125 -4.75 C 1.140625 -4.75 1.046875 -4.734375 1.046875 -4.59375 C 1.046875 -4.5 1.140625 -4.5 1.234375 -4.5 C 1.5625 -4.5 1.5625 -4.453125 1.5625 -4.390625 C 1.5625 -4.34375 1.546875 -4.296875 1.53125 -4.234375 L 0.5625 -0.3125 C 0.515625 -0.1875 0.515625 -0.171875 0.515625 -0.15625 C 0.515625 -0.046875 0.609375 0.0625 0.765625 0.0625 C 0.828125 0.0625 0.96875 0.03125 1.046875 -0.109375 C 1.0625 -0.15625 1.125 -0.40625 1.15625 -0.546875 L 1.328125 -1.171875 C 1.34375 -1.265625 1.40625 -1.53125 1.4375 -1.640625 C 1.5 -1.90625 1.5 -1.90625 1.640625 -2.140625 C 1.859375 -2.46875 2.21875 -2.875 2.75 -2.875 C 3.140625 -2.875 3.15625 -2.546875 3.15625 -2.390625 C 3.15625 -1.96875 2.859375 -1.203125 2.75 -0.90625 C 2.671875 -0.703125 2.65625 -0.640625 2.65625 -0.53125 C 2.65625 -0.15625 2.953125 0.0625 3.3125 0.0625 C 4 0.0625 4.3125 -0.890625 4.3125 -1 C 4.3125 -1.078125 4.21875 -1.078125 4.203125 -1.078125 C 4.109375 -1.078125 4.09375 -1.046875 4.0625 -0.96875 C 3.90625 -0.40625 3.609375 -0.125 3.328125 -0.125 C 3.1875 -0.125 3.15625 -0.21875 3.15625 -0.375 C 3.15625 -0.53125 3.1875 -0.625 3.3125 -0.9375 C 3.40625 -1.140625 3.6875 -1.890625 3.6875 -2.28125 C 3.6875 -2.390625 3.6875 -2.671875 3.421875 -2.875 C 3.3125 -2.96875 3.109375 -3.0625 2.78125 -3.0625 C 2.28125 -3.0625 1.90625 -2.78125 1.640625 -2.484375 Z M 2.171875 -4.609375 "/>
</g>
<g id="glyph-0-1">
<path d="M 3.71875 -2.53125 C 3.71875 -3.0625 3.390625 -3.078125 3.359375 -3.078125 C 3.1875 -3.078125 2.984375 -2.890625 2.984375 -2.703125 C 2.984375 -2.59375 3.0625 -2.53125 3.109375 -2.484375 C 3.21875 -2.390625 3.359375 -2.21875 3.359375 -1.9375 C 3.359375 -1.625 2.90625 -0.125 2.078125 -0.125 C 1.515625 -0.125 1.515625 -0.625 1.515625 -0.75 C 1.515625 -1.0625 1.640625 -1.453125 1.890625 -2.09375 C 1.953125 -2.25 2 -2.34375 2 -2.46875 C 2 -2.828125 1.6875 -3.0625 1.328125 -3.0625 C 0.640625 -3.0625 0.328125 -2.109375 0.328125 -2 C 0.328125 -1.90625 0.421875 -1.90625 0.4375 -1.90625 C 0.546875 -1.90625 0.546875 -1.953125 0.5625 -2.015625 C 0.734375 -2.59375 1.03125 -2.875 1.3125 -2.875 C 1.4375 -2.875 1.484375 -2.796875 1.484375 -2.625 C 1.484375 -2.46875 1.4375 -2.328125 1.359375 -2.15625 C 1.0625 -1.390625 0.984375 -1.09375 0.984375 -0.84375 C 0.984375 -0.15625 1.53125 0.0625 2.0625 0.0625 C 3.21875 0.0625 3.71875 -1.953125 3.71875 -2.53125 Z M 3.71875 -2.53125 "/>
</g>
<g id="glyph-0-2">
<path d="M 1.46875 -0.109375 C 1.46875 0.265625 1.390625 0.71875 0.921875 1.15625 C 0.890625 1.1875 0.875 1.203125 0.875 1.25 C 0.875 1.296875 0.9375 1.34375 0.96875 1.34375 C 1.078125 1.34375 1.65625 0.78125 1.65625 -0.046875 C 1.65625 -0.46875 1.5 -0.796875 1.171875 -0.796875 C 0.953125 -0.796875 0.78125 -0.625 0.78125 -0.40625 C 0.78125 -0.1875 0.9375 0 1.1875 0 C 1.34375 0 1.453125 -0.109375 1.46875 -0.109375 Z M 1.46875 -0.109375 "/>
</g>
<g id="glyph-1-0">
<path d="M 2.46875 -5.21875 C 1.140625 -4.28125 0.796875 -2.8125 0.796875 -1.75 C 0.796875 -0.765625 1.09375 0.765625 2.46875 1.734375 C 2.53125 1.734375 2.609375 1.734375 2.609375 1.640625 C 2.609375 1.609375 2.59375 1.59375 2.53125 1.546875 C 1.609375 0.703125 1.265625 -0.46875 1.265625 -1.734375 C 1.265625 -3.609375 1.984375 -4.53125 2.5625 -5.046875 C 2.59375 -5.078125 2.609375 -5.09375 2.609375 -5.125 C 2.609375 -5.21875 2.53125 -5.21875 2.46875 -5.21875 Z M 2.46875 -5.21875 "/>
</g>
<g id="glyph-1-1">
<path d="M 3.21875 -1.578125 L 5.34375 -1.578125 C 5.4375 -1.578125 5.609375 -1.578125 5.609375 -1.734375 C 5.609375 -1.90625 5.4375 -1.90625 5.34375 -1.90625 L 3.21875 -1.90625 L 3.21875 -4.046875 C 3.21875 -4.140625 3.21875 -4.296875 3.046875 -4.296875 C 2.875 -4.296875 2.875 -4.140625 2.875 -4.046875 L 2.875 -1.90625 L 0.75 -1.90625 C 0.65625 -1.90625 0.484375 -1.90625 0.484375 -1.75 C 0.484375 -1.578125 0.640625 -1.578125 0.75 -1.578125 L 2.875 -1.578125 L 2.875 0.5625 C 2.875 0.65625 2.875 0.828125 3.046875 0.828125 C 3.21875 0.828125 3.21875 0.65625 3.21875 0.5625 Z M 3.21875 -1.578125 "/>
</g>
<g id="glyph-1-2">
<path d="M 0.625 -5.21875 C 0.578125 -5.21875 0.5 -5.21875 0.5 -5.125 C 0.5 -5.09375 0.515625 -5.078125 0.5625 -5.03125 C 1.15625 -4.484375 1.828125 -3.546875 1.828125 -1.75 C 1.828125 -0.296875 1.375 0.8125 0.625 1.484375 C 0.5 1.609375 0.5 1.609375 0.5 1.640625 C 0.5 1.6875 0.515625 1.734375 0.578125 1.734375 C 0.671875 1.734375 1.328125 1.265625 1.78125 0.40625 C 2.09375 -0.171875 2.296875 -0.921875 2.296875 -1.734375 C 2.296875 -2.71875 2 -4.234375 0.625 -5.21875 Z M 0.625 -5.21875 "/>
</g>
<g id="glyph-1-3">
<path d="M 3.578125 -2.109375 C 3.578125 -2.71875 3.28125 -3.0625 2.53125 -3.0625 C 1.96875 -3.0625 1.59375 -2.75 1.40625 -2.390625 L 1.390625 -2.390625 L 1.390625 -3.0625 L 0.375 -2.984375 L 0.375 -2.734375 C 0.84375 -2.734375 0.890625 -2.6875 0.890625 -2.34375 L 0.890625 -0.546875 C 0.890625 -0.25 0.828125 -0.25 0.375 -0.25 L 0.375 0 C 0.390625 0 0.875 -0.03125 1.171875 -0.03125 C 1.421875 -0.03125 1.90625 0 1.96875 0 L 1.96875 -0.25 C 1.515625 -0.25 1.453125 -0.25 1.453125 -0.546875 L 1.453125 -1.796875 C 1.453125 -2.53125 2.015625 -2.875 2.484375 -2.875 C 2.96875 -2.875 3.03125 -2.484375 3.03125 -2.140625 L 3.03125 -0.546875 C 3.03125 -0.25 2.96875 -0.25 2.515625 -0.25 L 2.515625 0 C 2.53125 0 3.015625 -0.03125 3.296875 -0.03125 C 3.5625 -0.03125 4.046875 0 4.109375 0 L 4.109375 -0.25 C 3.65625 -0.25 3.578125 -0.25 3.578125 -0.546875 Z M 3.578125 -2.109375 "/>
</g>
<g id="glyph-1-4">
<path d="M 3.09375 -1.859375 C 3.09375 -2.234375 3.09375 -2.5 2.78125 -2.75 C 2.5 -2.984375 2.15625 -3.09375 1.75 -3.09375 C 1.09375 -3.09375 0.625 -2.84375 0.625 -2.421875 C 0.625 -2.203125 0.78125 -2.09375 0.953125 -2.09375 C 1.140625 -2.09375 1.28125 -2.21875 1.28125 -2.40625 C 1.28125 -2.53125 1.234375 -2.671875 1.046875 -2.734375 C 1.296875 -2.90625 1.703125 -2.90625 1.734375 -2.90625 C 2.125 -2.90625 2.546875 -2.65625 2.546875 -2.0625 L 2.546875 -1.84375 C 2.171875 -1.828125 1.703125 -1.8125 1.203125 -1.625 C 0.578125 -1.390625 0.375 -1.015625 0.375 -0.703125 C 0.375 -0.109375 1.109375 0.0625 1.59375 0.0625 C 2.15625 0.0625 2.484375 -0.25 2.625 -0.515625 C 2.65625 -0.234375 2.84375 0.03125 3.15625 0.03125 C 3.171875 0.03125 3.859375 0.03125 3.859375 -0.625 L 3.859375 -1.015625 L 3.609375 -1.015625 L 3.609375 -0.625 C 3.609375 -0.5625 3.609375 -0.234375 3.359375 -0.234375 C 3.09375 -0.234375 3.09375 -0.5625 3.09375 -0.640625 Z M 2.546875 -0.984375 C 2.546875 -0.3125 1.96875 -0.125 1.65625 -0.125 C 1.296875 -0.125 0.96875 -0.359375 0.96875 -0.703125 C 0.96875 -1.078125 1.296875 -1.625 2.546875 -1.671875 Z M 2.546875 -0.984375 "/>
</g>
<g id="glyph-1-5">
<path d="M 1.46875 -4.296875 C 1.46875 -4.484375 1.296875 -4.6875 1.0625 -4.6875 C 0.859375 -4.6875 0.671875 -4.515625 0.671875 -4.296875 C 0.671875 -4.046875 0.875 -3.890625 1.0625 -3.890625 C 1.28125 -3.890625 1.46875 -4.0625 1.46875 -4.296875 Z M 0.40625 -2.984375 L 0.40625 -2.734375 C 0.84375 -2.734375 0.90625 -2.703125 0.90625 -2.359375 L 0.90625 -0.546875 C 0.90625 -0.25 0.84375 -0.25 0.390625 -0.25 L 0.390625 0 C 0.40625 0 0.890625 -0.03125 1.171875 -0.03125 C 1.40625 -0.03125 1.65625 -0.015625 1.90625 0 L 1.90625 -0.25 C 1.5 -0.25 1.4375 -0.25 1.4375 -0.546875 L 1.4375 -3.0625 Z M 0.40625 -2.984375 "/>
</g>
<g id="glyph-1-6">
<path d="M 2.25 -1.890625 C 3.09375 -2.546875 3.328125 -2.734375 3.8125 -2.75 L 3.8125 -3 C 3.671875 -2.984375 3.484375 -2.96875 3.34375 -2.96875 C 3.0625 -2.96875 2.78125 -2.96875 2.5 -3 L 2.5 -2.75 C 2.59375 -2.734375 2.625 -2.671875 2.625 -2.625 C 2.625 -2.515625 2.5 -2.375 2.40625 -2.3125 L 1.390625 -1.515625 L 1.390625 -4.828125 L 0.34375 -4.75 L 0.34375 -4.5 C 0.8125 -4.5 0.859375 -4.453125 0.859375 -4.109375 L 0.859375 -0.546875 C 0.859375 -0.25 0.796875 -0.25 0.34375 -0.25 L 0.34375 0 C 0.59375 -0.015625 0.859375 -0.03125 1.109375 -0.03125 C 1.375 -0.03125 1.625 -0.015625 1.890625 0 L 1.890625 -0.25 C 1.4375 -0.25 1.359375 -0.25 1.359375 -0.546875 L 1.359375 -1.203125 L 1.859375 -1.59375 L 2.625 -0.65625 C 2.703125 -0.5625 2.78125 -0.46875 2.78125 -0.375 C 2.78125 -0.265625 2.65625 -0.25 2.59375 -0.25 L 2.59375 0 C 2.671875 0 3.171875 -0.03125 3.375 -0.03125 C 3.578125 -0.03125 3.78125 -0.015625 3.984375 0 L 3.984375 -0.25 C 3.71875 -0.25 3.5625 -0.265625 3.359375 -0.515625 Z M 2.25 -1.890625 "/>
</g>
<g id="glyph-1-7">
<path d="M 1.390625 -2.75 L 2.484375 -2.75 L 2.484375 -3 L 1.390625 -3 L 1.390625 -4.28125 L 1.15625 -4.28125 C 1.15625 -3.65625 0.875 -2.96875 0.203125 -2.9375 L 0.203125 -2.75 L 0.84375 -2.75 L 0.84375 -0.875 C 0.84375 -0.09375 1.4375 0.0625 1.828125 0.0625 C 2.28125 0.0625 2.609375 -0.328125 2.609375 -0.875 L 2.609375 -1.265625 L 2.375 -1.265625 L 2.375 -0.890625 C 2.375 -0.40625 2.15625 -0.15625 1.875 -0.15625 C 1.390625 -0.15625 1.390625 -0.734375 1.390625 -0.859375 Z M 1.390625 -2.75 "/>
</g>
<g id="glyph-1-8">
<path d="M 2.515625 -2.984375 L 2.515625 -2.734375 C 2.96875 -2.734375 3.03125 -2.6875 3.03125 -2.34375 L 3.03125 -1.15625 C 3.03125 -0.546875 2.640625 -0.125 2.109375 -0.125 C 1.46875 -0.125 1.453125 -0.421875 1.453125 -0.78125 L 1.453125 -3.0625 L 0.375 -2.984375 L 0.375 -2.734375 C 0.890625 -2.734375 0.890625 -2.71875 0.890625 -2.09375 L 0.890625 -1.0625 C 0.890625 -0.578125 0.890625 0.0625 2.0625 0.0625 C 2.21875 0.0625 2.71875 0.0625 3.046875 -0.515625 L 3.0625 -0.515625 L 3.0625 0.0625 L 4.109375 0 L 4.109375 -0.25 C 3.640625 -0.25 3.578125 -0.296875 3.578125 -0.640625 L 3.578125 -3.0625 Z M 2.515625 -2.984375 "/>
</g>
<g id="glyph-1-9">
<path d="M 1.390625 -1.578125 C 1.390625 -2.171875 1.65625 -2.875 2.3125 -2.875 C 2.25 -2.828125 2.203125 -2.734375 2.203125 -2.625 C 2.203125 -2.390625 2.375 -2.296875 2.515625 -2.296875 C 2.671875 -2.296875 2.828125 -2.40625 2.828125 -2.625 C 2.828125 -2.859375 2.609375 -3.0625 2.28125 -3.0625 C 1.9375 -3.0625 1.546875 -2.84375 1.34375 -2.328125 L 1.328125 -2.328125 L 1.328125 -3.0625 L 0.34375 -2.984375 L 0.34375 -2.734375 C 0.8125 -2.734375 0.859375 -2.6875 0.859375 -2.34375 L 0.859375 -0.546875 C 0.859375 -0.25 0.796875 -0.25 0.34375 -0.25 L 0.34375 0 C 0.375 0 0.84375 -0.03125 1.140625 -0.03125 C 1.4375 -0.03125 1.734375 -0.015625 2.03125 0 L 2.03125 -0.25 L 1.890625 -0.25 C 1.390625 -0.25 1.390625 -0.328125 1.390625 -0.5625 Z M 1.390625 -1.578125 "/>
</g>
<g id="glyph-1-10">
<path d="M 2.640625 -2.921875 C 2.640625 -3.03125 2.640625 -3.09375 2.53125 -3.09375 C 2.5 -3.09375 2.484375 -3.09375 2.40625 -3.015625 C 2.390625 -3.015625 2.3125 -2.953125 2.28125 -2.90625 C 2.0625 -3.0625 1.796875 -3.09375 1.546875 -3.09375 C 0.546875 -3.09375 0.3125 -2.578125 0.3125 -2.234375 C 0.3125 -2.015625 0.40625 -1.828125 0.578125 -1.6875 C 0.84375 -1.453125 1.109375 -1.40625 1.53125 -1.34375 C 1.890625 -1.28125 2.453125 -1.1875 2.453125 -0.71875 C 2.453125 -0.4375 2.265625 -0.125 1.59375 -0.125 C 0.921875 -0.125 0.6875 -0.5625 0.5625 -1.03125 C 0.53125 -1.125 0.53125 -1.15625 0.4375 -1.15625 C 0.3125 -1.15625 0.3125 -1.109375 0.3125 -0.96875 L 0.3125 -0.109375 C 0.3125 0 0.3125 0.0625 0.40625 0.0625 C 0.46875 0.0625 0.609375 -0.078125 0.75 -0.234375 C 1.046875 0.0625 1.421875 0.0625 1.59375 0.0625 C 2.5 0.0625 2.828125 -0.421875 2.828125 -0.90625 C 2.828125 -1.171875 2.71875 -1.390625 2.53125 -1.546875 C 2.265625 -1.796875 1.953125 -1.84375 1.703125 -1.890625 C 1.140625 -1.984375 0.703125 -2.078125 0.703125 -2.4375 C 0.703125 -2.65625 0.890625 -2.9375 1.546875 -2.9375 C 2.34375 -2.9375 2.390625 -2.375 2.40625 -2.171875 C 2.40625 -2.09375 2.484375 -2.09375 2.515625 -2.09375 C 2.640625 -2.09375 2.640625 -2.140625 2.640625 -2.28125 Z M 2.640625 -2.921875 "/>
</g>
<g id="glyph-1-11">
<path d="M 1.40625 -0.109375 C 1.40625 0.078125 1.40625 0.671875 0.875 1.15625 C 0.84375 1.1875 0.828125 1.203125 0.828125 1.25 C 0.828125 1.28125 0.875 1.34375 0.921875 1.34375 C 1.015625 1.34375 1.609375 0.796875 1.609375 -0.046875 C 1.609375 -0.453125 1.453125 -0.796875 1.125 -0.796875 C 0.875 -0.796875 0.71875 -0.609375 0.71875 -0.390625 C 0.71875 -0.234375 0.828125 0 1.125 0 C 1.296875 0 1.40625 -0.109375 1.40625 -0.109375 Z M 1.40625 -0.109375 "/>
</g>
<g id="glyph-1-12">
<path d="M 2.46875 -4.75 L 2.46875 -4.5 C 2.9375 -4.5 3 -4.453125 3 -4.109375 L 3 -2.671875 C 2.734375 -2.921875 2.40625 -3.0625 2.015625 -3.0625 C 1.09375 -3.0625 0.3125 -2.375 0.3125 -1.5 C 0.3125 -0.625 1.0625 0.0625 1.9375 0.0625 C 2.515625 0.0625 2.84375 -0.234375 2.96875 -0.359375 L 2.96875 0.0625 L 4.046875 0 L 4.046875 -0.25 C 3.578125 -0.25 3.515625 -0.296875 3.515625 -0.640625 L 3.515625 -4.828125 Z M 2.96875 -0.734375 C 2.78125 -0.40625 2.4375 -0.125 1.984375 -0.125 C 1.59375 -0.125 1.3125 -0.359375 1.171875 -0.5625 C 1.03125 -0.765625 0.953125 -1.046875 0.953125 -1.484375 C 0.953125 -1.640625 0.953125 -2.171875 1.234375 -2.5 C 1.515625 -2.8125 1.859375 -2.875 2.0625 -2.875 C 2.390625 -2.875 2.6875 -2.71875 2.890625 -2.46875 C 2.96875 -2.359375 2.96875 -2.34375 2.96875 -2.21875 Z M 2.96875 -0.734375 "/>
</g>
<g id="glyph-1-13">
<path d="M 3.0625 -1.578125 C 3.203125 -1.578125 3.25 -1.578125 3.25 -1.734375 C 3.25 -2.34375 2.90625 -3.09375 1.875 -3.09375 C 0.96875 -3.09375 0.265625 -2.375 0.265625 -1.515625 C 0.265625 -0.640625 1.046875 0.0625 1.96875 0.0625 C 2.90625 0.0625 3.25 -0.6875 3.25 -0.828125 C 3.25 -0.859375 3.234375 -0.9375 3.140625 -0.9375 C 3.046875 -0.9375 3.03125 -0.890625 3.015625 -0.828125 C 2.796875 -0.25 2.265625 -0.15625 2.015625 -0.15625 C 1.6875 -0.15625 1.375 -0.296875 1.171875 -0.5625 C 0.90625 -0.890625 0.90625 -1.3125 0.90625 -1.578125 Z M 0.90625 -1.765625 C 0.984375 -2.75 1.609375 -2.90625 1.875 -2.90625 C 2.734375 -2.90625 2.765625 -1.9375 2.765625 -1.765625 Z M 0.90625 -1.765625 "/>
</g>
<g id="glyph-1-14">
<path d="M 1.390625 -4.828125 L 0.34375 -4.75 L 0.34375 -4.5 C 0.8125 -4.5 0.859375 -4.4375 0.859375 -4.09375 L 0.859375 0 L 1.09375 0 L 1.34375 -0.421875 C 1.609375 -0.078125 1.984375 0.0625 2.359375 0.0625 C 3.28125 0.0625 4.0625 -0.625 4.0625 -1.5 C 4.0625 -2.34375 3.34375 -3.0625 2.4375 -3.0625 C 2.015625 -3.0625 1.640625 -2.90625 1.390625 -2.65625 Z M 1.40625 -2.328125 C 1.609375 -2.65625 1.984375 -2.875 2.40625 -2.875 C 2.78125 -2.875 3.0625 -2.65625 3.203125 -2.4375 C 3.34375 -2.234375 3.421875 -1.96875 3.421875 -1.515625 C 3.421875 -1.34375 3.421875 -0.828125 3.140625 -0.5 C 2.859375 -0.1875 2.53125 -0.125 2.328125 -0.125 C 1.765625 -0.125 1.484375 -0.5625 1.40625 -0.703125 Z M 1.40625 -2.328125 "/>
</g>
<g id="glyph-2-0">
<path d="M 5.171875 -1.578125 C 5.28125 -1.578125 5.453125 -1.578125 5.453125 -1.734375 C 5.453125 -1.90625 5.296875 -1.90625 5.171875 -1.90625 L 1.03125 -1.90625 C 0.921875 -1.90625 0.75 -1.90625 0.75 -1.75 C 0.75 -1.578125 0.90625 -1.578125 1.03125 -1.578125 Z M 5.171875 -1.578125 "/>
</g>
</g>
</defs>
<path fill="none" stroke-width="0.3985" stroke-linecap="butt" stroke-linejoin="miter" stroke="rgb(47.294617%, 50.312805%, 53.33252%)" stroke-opacity="1" stroke-miterlimit="10" d="M -9.52424 0.00109368 L 75.296227 0.00109368 " transform="matrix(0.996959, 0, 0, -0.996959, 14.948398, 80.419059)"/>
<path fill-rule="nonzero" fill="rgb(47.294617%, 50.312805%, 53.33252%)" fill-opacity="1" stroke-width="0.3985" stroke-linecap="butt" stroke-linejoin="miter" stroke="rgb(47.294617%, 50.312805%, 53.33252%)" stroke-opacity="1" stroke-miterlimit="10" d="M 4.536846 0.00109368 L 0.642189 1.466488 L 1.923429 0.00109368 L 0.642189 -1.464301 Z M 4.536846 0.00109368 " transform="matrix(0.996959, 0, 0, -0.996959, 88.199608, 80.419059)"/>
<g fill="rgb(47.294617%, 50.312805%, 53.33252%)" fill-opacity="1">
<use xlink:href="#glyph-0-0" x="96.794718" y="82.833693"/>
</g>
<path fill="none" stroke-width="0.3985" stroke-linecap="butt" stroke-linejoin="miter" stroke="rgb(47.294617%, 50.312805%, 53.33252%)" stroke-opacity="1" stroke-miterlimit="10" d="M 0.000822839 -63.269457 L 0.000822839 63.502817 " transform="matrix(0.996959, 0, 0, -0.996959, 14.948398, 80.419059)"/>
<path fill-rule="nonzero" fill="rgb(47.294617%, 50.312805%, 53.33252%)" fill-opacity="1" stroke-width="0.3985" stroke-linecap="butt" stroke-linejoin="miter" stroke="rgb(47.294617%, 50.312805%, 53.33252%)" stroke-opacity="1" stroke-miterlimit="10" d="M 4.535916 -0.000822839 L 0.645177 1.464571 L 1.922499 -0.000822839 L 0.645177 -1.466217 Z M 4.535916 -0.000822839 " transform="matrix(0, -0.996959, -0.996959, 0, 14.948398, 18.924465)"/>
<g fill="rgb(47.294617%, 50.312805%, 53.33252%)" fill-opacity="1">
<use xlink:href="#glyph-0-1" x="12.83684" y="10.329873"/>
</g>
<path fill="none" stroke-width="1.19553" stroke-linecap="butt" stroke-linejoin="miter" stroke="rgb(18.03894%, 48.234558%, 70.979309%)" stroke-opacity="1" stroke-miterlimit="10" d="M 0.22024 -54.48101 L 3.064829 -53.258542 L 5.846727 -52.032156 L 8.565935 -50.809688 L 11.218533 -49.58722 L 13.808441 -48.360834 L 16.33174 -47.138366 L 18.788431 -45.91198 L 21.18243 -44.689512 L 23.513739 -43.463126 L 25.77844 -42.240658 L 27.976531 -41.014272 L 30.111932 -39.791804 L 32.184642 -38.569336 L 34.190743 -37.34295 L 36.130235 -36.120482 L 38.007037 -34.894096 L 39.81723 -33.671628 L 41.564732 -32.445242 L 43.249544 -31.222774 L 44.867746 -29.996388 L 46.41934 -28.77392 L 47.908243 -27.551452 L 49.330538 -26.325066 L 50.690142 -25.102598 L 51.983137 -23.876212 L 53.213441 -22.653744 L 54.377136 -21.427358 L 55.478141 -20.20489 L 56.512537 -18.978504 L 57.484242 -17.756036 L 58.389339 -16.533569 L 59.231744 -15.307182 L 60.007541 -14.084715 L 60.720648 -12.858328 L 61.367145 -11.635861 L 61.950952 -10.409474 L 62.46815 -9.187007 L 62.922657 -7.96062 L 63.310556 -6.738153 L 63.635763 -5.515685 L 63.894362 -4.289299 L 64.086353 -3.066831 L 64.215652 -1.840445 L 64.282261 -0.617977 L 64.282261 0.608409 L 64.21957 1.830877 L 64.090271 3.053345 L 63.894362 4.279731 L 63.635763 5.502199 L 63.314474 6.728585 L 62.926575 7.951053 L 62.472068 9.177439 L 61.95487 10.399907 L 61.374981 11.626293 L 60.728484 12.848761 L 60.015378 14.071229 L 59.239581 15.297615 L 58.397175 16.520083 L 57.492079 17.746469 L 56.524291 18.968937 L 55.489895 20.195323 L 54.388891 21.417791 L 53.225195 22.644177 L 51.994891 23.866645 L 50.701896 25.089113 L 49.342292 26.315499 L 47.919998 27.537967 L 46.431095 28.764353 L 44.879501 29.986821 L 43.261298 31.213207 L 41.580405 32.435675 L 39.832903 33.662061 L 38.02271 34.884529 L 36.145908 36.106997 L 34.206416 37.333383 L 32.200314 38.555851 L 30.131523 39.782237 L 27.996122 41.004705 L 25.79803 42.231091 L 23.53333 43.453559 L 21.202021 44.679945 L 18.81194 45.902413 L 16.351331 47.124881 L 13.828032 48.351267 L 11.242042 49.573735 L 8.589444 50.800121 L 5.870236 52.022589 L 3.092256 53.248975 L 0.243749 54.471443 " transform="matrix(0.996959, 0, 0, -0.996959, 14.948398, 80.419059)"/>
<path fill="none" stroke-width="1.19553" stroke-linecap="butt" stroke-linejoin="miter" stroke="rgb(18.03894%, 48.234558%, 70.979309%)" stroke-opacity="1" stroke-miterlimit="10" d="M 47.622217 38.66556 L 46.329222 29.759568 " transform="matrix(0.996959, 0, 0, -0.996959, 14.948398, 80.419059)"/>
<path fill-rule="nonzero" fill="rgb(18.03894%, 48.234558%, 70.979309%)" fill-opacity="1" stroke-width="0.9567" stroke-linecap="butt" stroke-linejoin="miter" stroke="rgb(18.03894%, 48.234558%, 70.979309%)" stroke-opacity="1" stroke-miterlimit="10" d="M 4.307221 -0.000881199 L 1.545238 1.051346 L 2.474121 -0.00166033 L 1.545512 -1.051068 Z M 4.307221 -0.000881199 " transform="matrix(-0.143193, 0.98657, 0.98657, 0.143193, 61.457478, 48.543718)"/>
<path fill-rule="nonzero" fill="rgb(12.156677%, 61.175537%, 56.077576%)" fill-opacity="1" d="M 60.261719 47.128906 C 60.261719 45.703125 59.105469 44.546875 57.679688 44.546875 C 56.253906 44.546875 55.097656 45.703125 55.097656 47.128906 C 55.097656 48.554688 56.253906 49.710938 57.679688 49.710938 C 59.105469 49.710938 60.261719 48.554688 60.261719 47.128906 Z M 60.261719 47.128906 "/>
<path fill-rule="nonzero" fill="rgb(90.979004%, 43.920898%, 22.744751%)" fill-opacity="1" d="M 60.261719 113.710938 C 60.261719 112.285156 59.105469 111.128906 57.679688 111.128906 C 56.253906 111.128906 55.097656 112.285156 55.097656 113.710938 C 55.097656 115.136719 56.253906 116.292969 57.679688 116.292969 C 59.105469 116.292969 60.261719 115.136719 60.261719 113.710938 Z M 60.261719 113.710938 "/>
<g fill="rgb(12.156677%, 61.175537%, 56.077576%)" fill-opacity="1">
<use xlink:href="#glyph-1-0" x="65.934859" y="44.486674"/>
</g>
<g fill="rgb(12.156677%, 61.175537%, 56.077576%)" fill-opacity="1">
<use xlink:href="#glyph-0-0" x="69.038391" y="44.486674"/>
<use xlink:href="#glyph-0-2" x="73.688284" y="44.486674"/>
</g>
<g fill="rgb(12.156677%, 61.175537%, 56.077576%)" fill-opacity="1">
<use xlink:href="#glyph-1-1" x="77.403872" y="44.486674"/>
</g>
<g fill="rgb(12.156677%, 61.175537%, 56.077576%)" fill-opacity="1">
<use xlink:href="#glyph-0-1" x="83.501271" y="44.486674"/>
</g>
<g fill="rgb(12.156677%, 61.175537%, 56.077576%)" fill-opacity="1">
<use xlink:href="#glyph-1-2" x="87.723391" y="44.486674"/>
</g>
<g fill="rgb(12.156677%, 61.175537%, 56.077576%)" fill-opacity="1">
<use xlink:href="#glyph-1-3" x="93.503775" y="44.486674"/>
<use xlink:href="#glyph-1-4" x="97.890859" y="44.486674"/>
<use xlink:href="#glyph-1-5" x="101.850359" y="44.486674"/>
<use xlink:href="#glyph-1-6" x="104.098827" y="44.486674"/>
</g>
<g fill="rgb(90.979004%, 43.920898%, 22.744751%)" fill-opacity="1">
<use xlink:href="#glyph-1-0" x="65.934859" y="119.827839"/>
</g>
<g fill="rgb(90.979004%, 43.920898%, 22.744751%)" fill-opacity="1">
<use xlink:href="#glyph-0-0" x="69.038391" y="119.827839"/>
<use xlink:href="#glyph-0-2" x="73.688284" y="119.827839"/>
</g>
<g fill="rgb(90.979004%, 43.920898%, 22.744751%)" fill-opacity="1">
<use xlink:href="#glyph-2-0" x="77.403872" y="119.827839"/>
</g>
<g fill="rgb(90.979004%, 43.920898%, 22.744751%)" fill-opacity="1">
<use xlink:href="#glyph-0-1" x="83.611933" y="119.827839"/>
</g>
<g fill="rgb(90.979004%, 43.920898%, 22.744751%)" fill-opacity="1">
<use xlink:href="#glyph-1-2" x="87.834053" y="119.827839"/>
</g>
<g fill="rgb(90.979004%, 43.920898%, 22.744751%)" fill-opacity="1">
<use xlink:href="#glyph-1-7" x="93.614437" y="119.827839"/>
<use xlink:href="#glyph-1-8" x="96.718073" y="119.827839"/>
<use xlink:href="#glyph-1-9" x="101.105158" y="119.827839"/>
<use xlink:href="#glyph-1-8" x="104.208794" y="119.827839"/>
<use xlink:href="#glyph-1-3" x="108.595879" y="119.827839"/>
</g>
<path fill="none" stroke-width="0.3985" stroke-linecap="butt" stroke-linejoin="miter" stroke="rgb(73.646545%, 75.15564%, 76.664734%)" stroke-opacity="1" stroke-dasharray="2.98883 2.98883" stroke-miterlimit="10" d="M 42.861645 -33.393439 L 42.861645 33.391708 " transform="matrix(0.996959, 0, 0, -0.996959, 14.948398, 80.419059)"/>
<g fill="rgb(0%, 0%, 0%)" fill-opacity="1">
<use xlink:href="#glyph-1-10" x="7.28378" y="146.57624"/>
<use xlink:href="#glyph-1-4" x="10.430523" y="146.57624"/>
<use xlink:href="#glyph-1-7" x="14.390023" y="146.57624"/>
<use xlink:href="#glyph-1-8" x="17.493659" y="146.57624"/>
</g>
<g fill="rgb(0%, 0%, 0%)" fill-opacity="1">
<use xlink:href="#glyph-0-0" x="24.556089" y="146.57624"/>
</g>
<g fill="rgb(0%, 0%, 0%)" fill-opacity="1">
<use xlink:href="#glyph-1-11" x="29.205904" y="146.57624"/>
</g>
<g fill="rgb(0%, 0%, 0%)" fill-opacity="1">
<use xlink:href="#glyph-1-12" x="34.13112" y="146.57624"/>
<use xlink:href="#glyph-1-8" x="38.518204" y="146.57624"/>
<use xlink:href="#glyph-1-4" x="42.905289" y="146.57624"/>
</g>
<g fill="rgb(0%, 0%, 0%)" fill-opacity="1">
<use xlink:href="#glyph-1-6" x="49.541536" y="146.57624"/>
</g>
<g fill="rgb(0%, 0%, 0%)" fill-opacity="1">
<use xlink:href="#glyph-1-13" x="53.498951" y="146.57624"/>
<use xlink:href="#glyph-1-4" x="57.030171" y="146.57624"/>
<use xlink:href="#glyph-1-12" x="60.989672" y="146.57624"/>
<use xlink:href="#glyph-1-4" x="65.376756" y="146.57624"/>
<use xlink:href="#glyph-1-4" x="69.336256" y="146.57624"/>
<use xlink:href="#glyph-1-3" x="73.295757" y="146.57624"/>
</g>
<g fill="rgb(0%, 0%, 0%)" fill-opacity="1">
<use xlink:href="#glyph-1-14" x="80.359589" y="146.57624"/>
</g>
<g fill="rgb(0%, 0%, 0%)" fill-opacity="1">
<use xlink:href="#glyph-1-13" x="84.955251" y="146.57624"/>
</g>
<g fill="rgb(0%, 0%, 0%)" fill-opacity="1">
<use xlink:href="#glyph-1-9" x="88.493424" y="146.57624"/>
<use xlink:href="#glyph-1-14" x="91.59706" y="146.57624"/>
</g>
<g fill="rgb(0%, 0%, 0%)" fill-opacity="1">
<use xlink:href="#glyph-1-13" x="96.192723" y="146.57624"/>
<use xlink:href="#glyph-1-12" x="99.723943" y="146.57624"/>
<use xlink:href="#glyph-1-4" x="104.111028" y="146.57624"/>
</g>
</svg>
